<svg xmlns="http://www.w3.org/2000/svg" viewBox="0 0 435 173" role="img" aria-label="HANGAR NETWORK — electric"><style>
.pl{animation:tr .48s linear infinite}
.halo{stroke:#4fb6f0;stroke-width:7;stroke-dasharray:16 84;filter:url(#fh);animation-name:trh}
.glow{stroke:#8fd8ff;stroke-width:3.2;stroke-dasharray:13 87;filter:url(#fg);animation-name:trg}
.core{stroke:#fff;stroke-width:1.9;stroke-dasharray:10 90}
.b2 .pl{animation-delay:-.056s}
.b2 .halo{stroke-width:5}.b2 .glow{stroke-width:2.1}.b2 .core{stroke-width:1.2}
@keyframes tr{from{stroke-dashoffset:100}to{stroke-dashoffset:0}}
@keyframes trg{from{stroke-dashoffset:103}to{stroke-dashoffset:3}}
@keyframes trh{from{stroke-dashoffset:106}to{stroke-dashoffset:6}}
.brh{stroke:#8fd8ff;stroke-width:2.6;filter:url(#fg)}
.brc{stroke:#fff;stroke-width:1.1}
.brh,.brc{opacity:0;animation:bf .48s linear infinite}
.bt{animation-delay:-.056s}
@keyframes bf{0%,84%{opacity:0}87%{opacity:1}90%{opacity:.3}93%{opacity:.85}100%{opacity:0}}
.sp{opacity:0;transform-box:fill-box;transform-origin:center;animation:pop .48s linear infinite}
.s2{animation-delay:-.056s}
.s3{animation-delay:.0128s}
@keyframes pop{0%,85%{opacity:0;transform:scale(.4)}89%{opacity:1;transform:scale(1.3)}94%{opacity:.75;transform:scale(1)}100%{opacity:0;transform:scale(.7)}}
.chg{animation:ck .48s linear infinite;mix-blend-mode:screen}
@keyframes ck{0%,70%{opacity:.03}83%{opacity:.05}88%{opacity:.15}92%{opacity:.05}96%{opacity:.08}100%{opacity:.03}}
.swp{animation:swx .48s linear infinite,swo .48s linear infinite}
@keyframes swx{0%{transform:translateX(0) skewX(-8deg)}86%,100%{transform:translateX(300px) skewX(-8deg)}}
@keyframes swo{0%{opacity:0}8%{opacity:.15}78%{opacity:.15}86%,100%{opacity:0}}
@media (prefers-reduced-motion:reduce){
.pl,.brh,.brc,.sp,.chg,.swp{animation:none}
.pl,.swp{display:none}
.trace{opacity:.5}
.brh{opacity:.28}.brc{opacity:.5}
.sp{opacity:.45;transform:none}
.chg{opacity:.04}
}
</style><defs><path id="W1" d="M33.20 100L15.80 100L15.80 31L33.20 31L33.20 57L54 57L54 31L71.40 31L71.40 100L54 100L54 72.70L33.20 72.70M83 100L80.90 96.80L100.40 31L126.40 31L145.90 96.80L143.80 100L129.20 100L125.80 87.70L101 87.70L97.60 100L83 100M112.80 46.70L105.60 72L121.20 72L114 46.70M172.80 100L155.40 100L155.40 31L174.20 31L197.10 71L197.10 31L214.50 31L214.50 100L195.80 100L172.80 60M229.10 82.40L229.10 48.60Q229.10 31 246.70 31L274.90 31L282.70 37L282.70 46.70L247.60 46.70Q246.50 46.70 246.50 47.80L246.50 83.20Q246.50 84.30 247.60 84.30L267.30 84.30L267.30 72.70L256 72.70L256 57L284.70 57L284.70 100L246.70 100Q229.10 100 229.10 82.40M294.30 100L292.20 96.80L311.70 31L337.70 31L357.20 96.80L355.10 100L340.50 100L337.10 87.70L312.30 87.70L308.90 100L294.30 100M324.10 46.70L316.90 72L332.50 72L325.30 46.70M384.10 100L366.70 100L366.70 31L400.70 31Q418.30 31 418.30 48.60L418.30 60.20Q418.30 72.40 409.90 76.20L420.30 96.50L418.30 100L403.30 100L391.90 77.70L384.10 77.70L384.10 100M384.10 46.70L384.10 62L399.80 62Q400.90 62 400.90 60.90L400.90 47.80Q400.90 46.70 399.80 46.70"/><path id="W2" d="M91.83 159L82.97 159L82.97 123.87L92.54 123.87L104.20 144.24L104.20 123.87L113.06 123.87L113.06 159L103.54 159L91.83 138.64M160.59 159L136 159L136 123.87L160.59 123.87L160.59 131.87L144.86 131.87L144.86 137.11L159.06 137.11L159.06 145.10L144.86 145.10L144.86 151.01L160.59 151.01M189.54 131.87L179.35 131.87L179.35 123.87L208.58 123.87L208.58 131.87L198.39 131.87L198.39 159L189.54 159M232.43 159L226.17 125.50L227.34 123.87L234.67 123.87L239.51 151.01L239.97 151.01L245.26 126.98L253.92 126.98L259.21 151.01L259.67 151.01L264.51 123.87L271.84 123.87L273.01 125.50L266.75 159L252.80 159L249.59 143.32L246.38 159M292.84 150.04L292.84 132.83Q292.84 123.87 301.80 123.87L313.21 123.87Q322.17 123.87 322.17 132.83L322.17 150.04Q322.17 159 313.21 159L301.80 159Q292.84 159 292.84 150.04M301.70 132.43L301.70 150.45Q301.70 151.01 302.26 151.01L312.75 151.01Q313.31 151.01 313.31 150.45L313.31 132.43Q313.31 131.87 312.75 131.87L302.26 131.87Q301.70 131.87 301.70 132.43M353.46 159L344.60 159L344.60 123.87L361.91 123.87Q370.87 123.87 370.87 132.83L370.87 138.74Q370.87 144.95 366.59 146.88L371.89 157.22L370.87 159L363.23 159L357.43 147.65L353.46 147.65L353.46 159M353.46 131.87L353.46 139.65L361.45 139.65Q362.01 139.65 362.01 139.09L362.01 132.43Q362.01 131.87 361.45 131.87M401.65 159L392.79 159L392.79 123.87L401.65 123.87L401.65 135.68L412.24 123.87L420.59 123.87L421.40 125.60L410 138.33L422.73 157.27L421.91 159L413.77 159L404.30 144.75L401.65 147.49"/><path id="BM" pathLength="100" d="M83.0 141.2L105.6 137.2L128.3 146.7L150.9 139.6L173.6 145.9L196.2 135.6L218.8 142.8L241.5 138L264.2 145.1L286.9 136.4L309.5 144.3L332.1 138.8L354.8 146.7L377.4 137.2L400.1 142.8L422.7 141.2" fill="none"/><path id="BU" pathLength="100" d="M236.6 128.5L259.3 129.7L282.0 126.2L304.7 131.4L327.3 125L350.0 130.9L372.7 126.8L395.3 132.6L418.0 128.5" fill="none"/><path id="BT" d="M379.1 123.3L390.7 127.1L402.2 118.9L413.9 124.6L422.7 123.3" fill="none"/><path id="BB" d="M392.0 156.8L402.2 159.4L412.5 153.6L422.7 156.8" fill="none"/><linearGradient id="g1" gradientUnits="userSpaceOnUse" x1="0" y1="26" x2="0" y2="102"><stop offset="0" stop-color="#ffffff"/><stop offset=".24" stop-color="#e9eff5"/><stop offset=".50" stop-color="#c3d0dc"/><stop offset=".52" stop-color="#7f97a9"/><stop offset=".62" stop-color="#a9bac7"/><stop offset=".84" stop-color="#e6edf3"/><stop offset="1" stop-color="#f9fbfd"/></linearGradient><linearGradient id="g2" gradientUnits="userSpaceOnUse" x1="0" y1="121" x2="0" y2="161"><stop offset="0" stop-color="#ffd75e"/><stop offset=".16" stop-color="#ffbe1d"/><stop offset=".44" stop-color="#ff8000"/><stop offset=".60" stop-color="#f26522"/><stop offset=".80" stop-color="#b34a00"/><stop offset="1" stop-color="#6e2f00"/></linearGradient><linearGradient id="spec" gradientUnits="userSpaceOnUse" x1="0" y1="0" x2="435" y2="173"><stop offset=".30" stop-color="#fff" stop-opacity="0"/><stop offset=".46" stop-color="#fff" stop-opacity=".32"/><stop offset=".52" stop-color="#fff" stop-opacity=".08"/><stop offset=".62" stop-color="#fff" stop-opacity="0"/></linearGradient><linearGradient id="sg" x1="0" y1="0" x2="1" y2="0"><stop offset="0" stop-color="#dff2ff" stop-opacity="0"/><stop offset=".5" stop-color="#ffffff" stop-opacity=".9"/><stop offset="1" stop-color="#dff2ff" stop-opacity="0"/></linearGradient><clipPath id="letters"><use href="#W1"/><use href="#W2"/></clipPath><clipPath id="word2"><use href="#W2"/></clipPath><filter id="ds" x="-8%" y="-12%" width="116%" height="130%"><feDropShadow dx="0" dy="3" stdDeviation="3" flood-color="#000" flood-opacity=".55"/></filter><filter id="fg" x="-30%" y="-30%" width="160%" height="160%"><feGaussianBlur stdDeviation="2.2"/></filter><filter id="fh" x="-60%" y="-60%" width="220%" height="220%"><feGaussianBlur stdDeviation="6"/></filter></defs><g filter="url(#ds)"><use href="#W1" transform="translate(3,3)" fill="#0d1216"/><use href="#W2" transform="translate(3,3)" fill="#1a0c02"/><use href="#W1" fill="url(#g1)" stroke="#1d262e" stroke-width="1.6"/><use href="#W2" fill="url(#g2)" stroke="#2c1403" stroke-width="1.3"/></g><rect width="435" height="173" fill="url(#spec)" clip-path="url(#letters)"/><g clip-path="url(#word2)"><rect class="chg" width="435" height="173" fill="#cfeaff" opacity=".03"/><rect class="swp" x="83" y="116" width="40" height="52" fill="url(#sg)" opacity="0"/></g><g class="trace" fill="none" stroke="#4fb6f0" stroke-linejoin="round" stroke-linecap="round" opacity=".16"><use href="#BM" stroke-width="1.4"/><use href="#BU" stroke-width="1.1"/></g><g fill="none" stroke-linejoin="round" stroke-linecap="round"><g><use href="#BM" class="pl halo"/><use href="#BM" class="pl glow"/><use href="#BM" class="pl core"/></g><g class="b2"><use href="#BU" class="pl halo"/><use href="#BU" class="pl glow"/><use href="#BU" class="pl core"/></g></g><g fill="none" stroke-linejoin="round" stroke-linecap="round"><use href="#BT" class="brh bt"/><use href="#BT" class="brc bt"/><use href="#BB" class="brh"/><use href="#BB" class="brc"/></g><g class="sp s1"><circle cx="422.7" cy="141.2" r="5" fill="#8fd8ff" opacity=".35"/><circle cx="422.7" cy="141.2" r="1.9" fill="#fff"/><path d="M426.1 137.5l4.2-4.4M426.4 144.6l4.6 3.8M423.0 135.4l.9-5.6M423.6 147.3l1.4 5.4" stroke="#dff2ff" stroke-width="1.1" fill="none" stroke-linecap="round"/></g><g class="sp s2"><circle cx="422.7" cy="123.3" r="3.4" fill="#8fd8ff" opacity=".35"/><circle cx="422.7" cy="123.3" r="1.3" fill="#fff"/><path d="M425.4 120.4l3.4-3.6M425.6 126l3.8 3" stroke="#dff2ff" stroke-width="1" fill="none" stroke-linecap="round"/></g><g class="sp s3"><circle cx="422.7" cy="156.8" r="3.6" fill="#8fd8ff" opacity=".35"/><circle cx="422.7" cy="156.8" r="1.4" fill="#fff"/><path d="M425.5 159.5l3.5 3.2M425.6 153.9l3.9-2.6" stroke="#dff2ff" stroke-width="1" fill="none" stroke-linecap="round"/></g></svg>
