<svg xmlns="http://www.w3.org/2000/svg" viewBox="0 0 435 170" role="img" aria-label="HANGAR NETWORK"><defs><linearGradient id="g1" gradientUnits="userSpaceOnUse" x1="0" y1="26" x2="0" y2="102"><stop offset="0" stop-color="#ffffff"/><stop offset=".24" stop-color="#e9eff5"/><stop offset=".50" stop-color="#c3d0dc"/><stop offset=".52" stop-color="#7f97a9"/><stop offset=".62" stop-color="#a9bac7"/><stop offset=".84" stop-color="#e6edf3"/><stop offset="1" stop-color="#f9fbfd"/></linearGradient><linearGradient id="g2" gradientUnits="userSpaceOnUse" x1="0" y1="126" x2="0" y2="158"><stop offset="0" stop-color="#ffffff"/><stop offset=".24" stop-color="#e9eff5"/><stop offset=".50" stop-color="#c3d0dc"/><stop offset=".52" stop-color="#7f97a9"/><stop offset=".62" stop-color="#a9bac7"/><stop offset=".84" stop-color="#e6edf3"/><stop offset="1" stop-color="#f9fbfd"/></linearGradient><linearGradient id="spec" gradientUnits="userSpaceOnUse" x1="0" y1="0" x2="435" y2="170"><stop offset=".30" stop-color="#fff" stop-opacity="0"/><stop offset=".46" stop-color="#fff" stop-opacity=".32"/><stop offset=".52" stop-color="#fff" stop-opacity=".08"/><stop offset=".62" stop-color="#fff" stop-opacity="0"/></linearGradient><clipPath id="letters"><path d="M33.20 100L15.80 100L15.80 31L33.20 31L33.20 57L54 57L54 31L71.40 31L71.40 100L54 100L54 72.70L33.20 72.70M83 100L80.90 96.80L100.40 31L126.40 31L145.90 96.80L143.80 100L129.20 100L125.80 87.70L101 87.70L97.60 100L83 100M112.80 46.70L105.60 72L121.20 72L114 46.70M172.80 100L155.40 100L155.40 31L174.20 31L197.10 71L197.10 31L214.50 31L214.50 100L195.80 100L172.80 60M229.10 82.40L229.10 48.60Q229.10 31 246.70 31L274.90 31L282.70 37L282.70 46.70L247.60 46.70Q246.50 46.70 246.50 47.80L246.50 83.20Q246.50 84.30 247.60 84.30L267.30 84.30L267.30 72.70L256 72.70L256 57L284.70 57L284.70 100L246.70 100Q229.10 100 229.10 82.40M294.30 100L292.20 96.80L311.70 31L337.70 31L357.20 96.80L355.10 100L340.50 100L337.10 87.70L312.30 87.70L308.90 100L294.30 100M324.10 46.70L316.90 72L332.50 72L325.30 46.70M384.10 100L366.70 100L366.70 31L400.70 31Q418.30 31 418.30 48.60L418.30 60.20Q418.30 72.40 409.90 76.20L420.30 96.50L418.30 100L403.30 100L391.90 77.70L384.10 77.70L384.10 100M384.10 46.70L384.10 62L399.80 62Q400.90 62 400.90 60.90L400.90 47.80Q400.90 46.70 399.80 46.70"/><path d="M89.08 156L82.12 156L82.12 128.40L89.64 128.40L98.80 144.40L98.80 128.40L105.76 128.40L105.76 156L98.28 156L89.08 140M155.43 156L136.11 156L136.11 128.40L155.43 128.40L155.43 134.68L143.07 134.68L143.07 138.80L154.23 138.80L154.23 145.08L143.07 145.08L143.07 149.72L155.43 149.72M190.50 134.68L182.50 134.68L182.50 128.40L205.46 128.40L205.46 134.68L197.46 134.68L197.46 156L190.50 156M236.53 156L231.61 129.68L232.53 128.40L238.29 128.40L242.09 149.72L242.45 149.72L246.61 130.84L253.41 130.84L257.57 149.72L257.93 149.72L261.73 128.40L267.49 128.40L268.41 129.68L263.49 156L252.53 156L250.01 143.68L247.49 156M296.32 148.96L296.32 135.44Q296.32 128.40 303.36 128.40L312.32 128.40Q319.36 128.40 319.36 135.44L319.36 148.96Q319.36 156 312.32 156L303.36 156Q296.32 156 296.32 148.96M303.28 135.12L303.28 149.28Q303.28 149.72 303.72 149.72L311.96 149.72Q312.40 149.72 312.40 149.28L312.40 135.12Q312.40 134.68 311.96 134.68L303.72 134.68Q303.28 134.68 303.28 135.12M356.27 156L349.31 156L349.31 128.40L362.91 128.40Q369.95 128.40 369.95 135.44L369.95 140.08Q369.95 144.96 366.59 146.48L370.75 154.60L369.95 156L363.95 156L359.39 147.08L356.27 147.08L356.27 156M356.27 134.68L356.27 140.80L362.55 140.80Q362.99 140.80 362.99 140.36L362.99 135.12Q362.99 134.68 362.55 134.68M406.46 156L399.50 156L399.50 128.40L406.46 128.40L406.46 137.68L414.78 128.40L421.34 128.40L421.98 129.76L413.02 139.76L423.02 154.64L422.38 156L415.98 156L408.54 144.80L406.46 146.96"/></clipPath><filter id="ds" x="-8%" y="-12%" width="116%" height="130%"><feDropShadow dx="0" dy="3" stdDeviation="3" flood-color="#000" flood-opacity=".55"/></filter></defs><g filter="url(#ds)"><path d="M33.20 100L15.80 100L15.80 31L33.20 31L33.20 57L54 57L54 31L71.40 31L71.40 100L54 100L54 72.70L33.20 72.70M83 100L80.90 96.80L100.40 31L126.40 31L145.90 96.80L143.80 100L129.20 100L125.80 87.70L101 87.70L97.60 100L83 100M112.80 46.70L105.60 72L121.20 72L114 46.70M172.80 100L155.40 100L155.40 31L174.20 31L197.10 71L197.10 31L214.50 31L214.50 100L195.80 100L172.80 60M229.10 82.40L229.10 48.60Q229.10 31 246.70 31L274.90 31L282.70 37L282.70 46.70L247.60 46.70Q246.50 46.70 246.50 47.80L246.50 83.20Q246.50 84.30 247.60 84.30L267.30 84.30L267.30 72.70L256 72.70L256 57L284.70 57L284.70 100L246.70 100Q229.10 100 229.10 82.40M294.30 100L292.20 96.80L311.70 31L337.70 31L357.20 96.80L355.10 100L340.50 100L337.10 87.70L312.30 87.70L308.90 100L294.30 100M324.10 46.70L316.90 72L332.50 72L325.30 46.70M384.10 100L366.70 100L366.70 31L400.70 31Q418.30 31 418.30 48.60L418.30 60.20Q418.30 72.40 409.90 76.20L420.30 96.50L418.30 100L403.30 100L391.90 77.70L384.10 77.70L384.10 100M384.10 46.70L384.10 62L399.80 62Q400.90 62 400.90 60.90L400.90 47.80Q400.90 46.70 399.80 46.70" transform="translate(3,3)" fill="#0d1216"/><path d="M89.08 156L82.12 156L82.12 128.40L89.64 128.40L98.80 144.40L98.80 128.40L105.76 128.40L105.76 156L98.28 156L89.08 140M155.43 156L136.11 156L136.11 128.40L155.43 128.40L155.43 134.68L143.07 134.68L143.07 138.80L154.23 138.80L154.23 145.08L143.07 145.08L143.07 149.72L155.43 149.72M190.50 134.68L182.50 134.68L182.50 128.40L205.46 128.40L205.46 134.68L197.46 134.68L197.46 156L190.50 156M236.53 156L231.61 129.68L232.53 128.40L238.29 128.40L242.09 149.72L242.45 149.72L246.61 130.84L253.41 130.84L257.57 149.72L257.93 149.72L261.73 128.40L267.49 128.40L268.41 129.68L263.49 156L252.53 156L250.01 143.68L247.49 156M296.32 148.96L296.32 135.44Q296.32 128.40 303.36 128.40L312.32 128.40Q319.36 128.40 319.36 135.44L319.36 148.96Q319.36 156 312.32 156L303.36 156Q296.32 156 296.32 148.96M303.28 135.12L303.28 149.28Q303.28 149.72 303.72 149.72L311.96 149.72Q312.40 149.72 312.40 149.28L312.40 135.12Q312.40 134.68 311.96 134.68L303.72 134.68Q303.28 134.68 303.28 135.12M356.27 156L349.31 156L349.31 128.40L362.91 128.40Q369.95 128.40 369.95 135.44L369.95 140.08Q369.95 144.96 366.59 146.48L370.75 154.60L369.95 156L363.95 156L359.39 147.08L356.27 147.08L356.27 156M356.27 134.68L356.27 140.80L362.55 140.80Q362.99 140.80 362.99 140.36L362.99 135.12Q362.99 134.68 362.55 134.68M406.46 156L399.50 156L399.50 128.40L406.46 128.40L406.46 137.68L414.78 128.40L421.34 128.40L421.98 129.76L413.02 139.76L423.02 154.64L422.38 156L415.98 156L408.54 144.80L406.46 146.96" transform="translate(3,3)" fill="#0d1216"/><path d="M33.20 100L15.80 100L15.80 31L33.20 31L33.20 57L54 57L54 31L71.40 31L71.40 100L54 100L54 72.70L33.20 72.70M83 100L80.90 96.80L100.40 31L126.40 31L145.90 96.80L143.80 100L129.20 100L125.80 87.70L101 87.70L97.60 100L83 100M112.80 46.70L105.60 72L121.20 72L114 46.70M172.80 100L155.40 100L155.40 31L174.20 31L197.10 71L197.10 31L214.50 31L214.50 100L195.80 100L172.80 60M229.10 82.40L229.10 48.60Q229.10 31 246.70 31L274.90 31L282.70 37L282.70 46.70L247.60 46.70Q246.50 46.70 246.50 47.80L246.50 83.20Q246.50 84.30 247.60 84.30L267.30 84.30L267.30 72.70L256 72.70L256 57L284.70 57L284.70 100L246.70 100Q229.10 100 229.10 82.40M294.30 100L292.20 96.80L311.70 31L337.70 31L357.20 96.80L355.10 100L340.50 100L337.10 87.70L312.30 87.70L308.90 100L294.30 100M324.10 46.70L316.90 72L332.50 72L325.30 46.70M384.10 100L366.70 100L366.70 31L400.70 31Q418.30 31 418.30 48.60L418.30 60.20Q418.30 72.40 409.90 76.20L420.30 96.50L418.30 100L403.30 100L391.90 77.70L384.10 77.70L384.10 100M384.10 46.70L384.10 62L399.80 62Q400.90 62 400.90 60.90L400.90 47.80Q400.90 46.70 399.80 46.70" fill="url(#g1)" stroke="#1d262e" stroke-width="1.6"/><path d="M89.08 156L82.12 156L82.12 128.40L89.64 128.40L98.80 144.40L98.80 128.40L105.76 128.40L105.76 156L98.28 156L89.08 140M155.43 156L136.11 156L136.11 128.40L155.43 128.40L155.43 134.68L143.07 134.68L143.07 138.80L154.23 138.80L154.23 145.08L143.07 145.08L143.07 149.72L155.43 149.72M190.50 134.68L182.50 134.68L182.50 128.40L205.46 128.40L205.46 134.68L197.46 134.68L197.46 156L190.50 156M236.53 156L231.61 129.68L232.53 128.40L238.29 128.40L242.09 149.72L242.45 149.72L246.61 130.84L253.41 130.84L257.57 149.72L257.93 149.72L261.73 128.40L267.49 128.40L268.41 129.68L263.49 156L252.53 156L250.01 143.68L247.49 156M296.32 148.96L296.32 135.44Q296.32 128.40 303.36 128.40L312.32 128.40Q319.36 128.40 319.36 135.44L319.36 148.96Q319.36 156 312.32 156L303.36 156Q296.32 156 296.32 148.96M303.28 135.12L303.28 149.28Q303.28 149.72 303.72 149.72L311.96 149.72Q312.40 149.72 312.40 149.28L312.40 135.12Q312.40 134.68 311.96 134.68L303.72 134.68Q303.28 134.68 303.28 135.12M356.27 156L349.31 156L349.31 128.40L362.91 128.40Q369.95 128.40 369.95 135.44L369.95 140.08Q369.95 144.96 366.59 146.48L370.75 154.60L369.95 156L363.95 156L359.39 147.08L356.27 147.08L356.27 156M356.27 134.68L356.27 140.80L362.55 140.80Q362.99 140.80 362.99 140.36L362.99 135.12Q362.99 134.68 362.55 134.68M406.46 156L399.50 156L399.50 128.40L406.46 128.40L406.46 137.68L414.78 128.40L421.34 128.40L421.98 129.76L413.02 139.76L423.02 154.64L422.38 156L415.98 156L408.54 144.80L406.46 146.96" fill="url(#g2)" stroke="#1d262e" stroke-width="1.3"/></g><rect width="435" height="170" fill="url(#spec)" clip-path="url(#letters)"/></svg>
