<svg xmlns="http://www.w3.org/2000/svg" viewBox="0 0 435 177" role="img" aria-label="HANGAR CLOUD"><defs><linearGradient id="g1" gradientUnits="userSpaceOnUse" x1="0" y1="26" x2="0" y2="102"><stop offset="0" stop-color="#ffffff"/><stop offset=".24" stop-color="#e9eff5"/><stop offset=".50" stop-color="#c3d0dc"/><stop offset=".52" stop-color="#7f97a9"/><stop offset=".62" stop-color="#a9bac7"/><stop offset=".84" stop-color="#e6edf3"/><stop offset="1" stop-color="#f9fbfd"/></linearGradient><linearGradient id="g2" gradientUnits="userSpaceOnUse" x1="0" y1="121" x2="0" y2="165"><stop offset="0" stop-color="#d6ebfa"/><stop offset=".22" stop-color="#9ccdf0"/><stop offset=".50" stop-color="#69aad7"/><stop offset=".78" stop-color="#3d7ba6"/><stop offset="1" stop-color="#27567a"/></linearGradient><linearGradient id="spec" gradientUnits="userSpaceOnUse" x1="0" y1="0" x2="435" y2="177"><stop offset=".30" stop-color="#fff" stop-opacity="0"/><stop offset=".46" stop-color="#fff" stop-opacity=".32"/><stop offset=".52" stop-color="#fff" stop-opacity=".08"/><stop offset=".62" stop-color="#fff" stop-opacity="0"/></linearGradient><clipPath id="letters"><path d="M33.20 100L15.80 100L15.80 31L33.20 31L33.20 57L54 57L54 31L71.40 31L71.40 100L54 100L54 72.70L33.20 72.70M83 100L80.90 96.80L100.40 31L126.40 31L145.90 96.80L143.80 100L129.20 100L125.80 87.70L101 87.70L97.60 100L83 100M112.80 46.70L105.60 72L121.20 72L114 46.70M172.80 100L155.40 100L155.40 31L174.20 31L197.10 71L197.10 31L214.50 31L214.50 100L195.80 100L172.80 60M229.10 82.40L229.10 48.60Q229.10 31 246.70 31L274.90 31L282.70 37L282.70 46.70L247.60 46.70Q246.50 46.70 246.50 47.80L246.50 83.20Q246.50 84.30 247.60 84.30L267.30 84.30L267.30 72.70L256 72.70L256 57L284.70 57L284.70 100L246.70 100Q229.10 100 229.10 82.40M294.30 100L292.20 96.80L311.70 31L337.70 31L357.20 96.80L355.10 100L340.50 100L337.10 87.70L312.30 87.70L308.90 100L294.30 100M324.10 46.70L316.90 72L332.50 72L325.30 46.70M384.10 100L366.70 100L366.70 31L400.70 31Q418.30 31 418.30 48.60L418.30 60.20Q418.30 72.40 409.90 76.20L420.30 96.50L418.30 100L403.30 100L391.90 77.70L384.10 77.70L384.10 100M384.10 46.70L384.10 62L399.80 62Q400.90 62 400.90 60.90L400.90 47.80Q400.90 46.70 399.80 46.70"/><path d="M82.81 153.14L82.81 134.22Q82.81 124.36 92.66 124.36L107.17 124.36L111.54 127.72L111.54 133.15L93.17 133.15Q92.55 133.15 92.55 133.77L92.55 153.59Q92.55 154.21 93.17 154.21L111.54 154.21L111.54 159.64L107.17 163L92.66 163Q82.81 163 82.81 153.14M184.29 163L158.92 163L158.92 124.36L168.66 124.36L168.66 154.21L184.29 154.21M229.65 153.14L229.65 134.22Q229.65 124.36 239.51 124.36L252.05 124.36Q261.91 124.36 261.91 134.22L261.91 153.14Q261.91 163 252.05 163L239.51 163Q229.65 163 229.65 153.14M239.40 133.77L239.40 153.59Q239.40 154.21 240.01 154.21L251.55 154.21Q252.17 154.21 252.17 153.59L252.17 133.77Q252.17 133.15 251.55 133.15L240.01 133.15Q239.40 133.15 239.40 133.77M309.96 153.14L309.96 124.36L319.71 124.36L319.71 153.59Q319.71 154.21 320.32 154.21L330.74 154.21Q331.36 154.21 331.36 153.59L331.36 124.36L341.10 124.36L341.10 153.14Q341.10 163 331.25 163L319.82 163Q309.96 163 309.96 153.14M404.16 163L389.72 163L389.72 124.36L404.16 124.36Q420.85 124.36 420.85 141.05L420.85 146.31Q420.85 163 404.16 163M399.46 133.15L399.46 154.21L404.72 154.21Q411.11 154.21 411.11 147.77L411.11 139.59Q411.11 133.15 404.72 133.15"/></clipPath><clipPath id="word2"><path d="M82.81 153.14L82.81 134.22Q82.81 124.36 92.66 124.36L107.17 124.36L111.54 127.72L111.54 133.15L93.17 133.15Q92.55 133.15 92.55 133.77L92.55 153.59Q92.55 154.21 93.17 154.21L111.54 154.21L111.54 159.64L107.17 163L92.66 163Q82.81 163 82.81 153.14M184.29 163L158.92 163L158.92 124.36L168.66 124.36L168.66 154.21L184.29 154.21M229.65 153.14L229.65 134.22Q229.65 124.36 239.51 124.36L252.05 124.36Q261.91 124.36 261.91 134.22L261.91 153.14Q261.91 163 252.05 163L239.51 163Q229.65 163 229.65 153.14M239.40 133.77L239.40 153.59Q239.40 154.21 240.01 154.21L251.55 154.21Q252.17 154.21 252.17 153.59L252.17 133.77Q252.17 133.15 251.55 133.15L240.01 133.15Q239.40 133.15 239.40 133.77M309.96 153.14L309.96 124.36L319.71 124.36L319.71 153.59Q319.71 154.21 320.32 154.21L330.74 154.21Q331.36 154.21 331.36 153.59L331.36 124.36L341.10 124.36L341.10 153.14Q341.10 163 331.25 163L319.82 163Q309.96 163 309.96 153.14M404.16 163L389.72 163L389.72 124.36L404.16 124.36Q420.85 124.36 420.85 141.05L420.85 146.31Q420.85 163 404.16 163M399.46 133.15L399.46 154.21L404.72 154.21Q411.11 154.21 411.11 147.77L411.11 139.59Q411.11 133.15 404.72 133.15"/></clipPath><radialGradient id="hole"><stop offset="0" stop-color="#050101"/><stop offset=".62" stop-color="#1a0404"/><stop offset=".88" stop-color="#3d0f0c"/><stop offset="1" stop-color="#54140f"/></radialGradient><filter id="ds" x="-8%" y="-12%" width="116%" height="130%"><feDropShadow dx="0" dy="3" stdDeviation="3" flood-color="#000" flood-opacity=".55"/></filter><filter id="eglow" x="-30%" y="-30%" width="160%" height="160%"><feGaussianBlur stdDeviation="2.2"/></filter><filter id="ehalo" x="-60%" y="-60%" width="220%" height="220%"><feGaussianBlur stdDeviation="6"/></filter><linearGradient id="charge" gradientUnits="userSpaceOnUse" x1="79" y1="0" x2="424.09999999999997" y2="0"><stop offset="0" stop-color="#bfe6ff" stop-opacity="0"/><stop offset=".60" stop-color="#bfe6ff" stop-opacity=".06"/><stop offset=".88" stop-color="#dff2ff" stop-opacity=".16"/><stop offset="1" stop-color="#ffffff" stop-opacity=".28"/></linearGradient></defs><g filter="url(#ds)"><path d="M33.20 100L15.80 100L15.80 31L33.20 31L33.20 57L54 57L54 31L71.40 31L71.40 100L54 100L54 72.70L33.20 72.70M83 100L80.90 96.80L100.40 31L126.40 31L145.90 96.80L143.80 100L129.20 100L125.80 87.70L101 87.70L97.60 100L83 100M112.80 46.70L105.60 72L121.20 72L114 46.70M172.80 100L155.40 100L155.40 31L174.20 31L197.10 71L197.10 31L214.50 31L214.50 100L195.80 100L172.80 60M229.10 82.40L229.10 48.60Q229.10 31 246.70 31L274.90 31L282.70 37L282.70 46.70L247.60 46.70Q246.50 46.70 246.50 47.80L246.50 83.20Q246.50 84.30 247.60 84.30L267.30 84.30L267.30 72.70L256 72.70L256 57L284.70 57L284.70 100L246.70 100Q229.10 100 229.10 82.40M294.30 100L292.20 96.80L311.70 31L337.70 31L357.20 96.80L355.10 100L340.50 100L337.10 87.70L312.30 87.70L308.90 100L294.30 100M324.10 46.70L316.90 72L332.50 72L325.30 46.70M384.10 100L366.70 100L366.70 31L400.70 31Q418.30 31 418.30 48.60L418.30 60.20Q418.30 72.40 409.90 76.20L420.30 96.50L418.30 100L403.30 100L391.90 77.70L384.10 77.70L384.10 100M384.10 46.70L384.10 62L399.80 62Q400.90 62 400.90 60.90L400.90 47.80Q400.90 46.70 399.80 46.70" transform="translate(3,3)" fill="#0d1216"/><path d="M82.81 153.14L82.81 134.22Q82.81 124.36 92.66 124.36L107.17 124.36L111.54 127.72L111.54 133.15L93.17 133.15Q92.55 133.15 92.55 133.77L92.55 153.59Q92.55 154.21 93.17 154.21L111.54 154.21L111.54 159.64L107.17 163L92.66 163Q82.81 163 82.81 153.14M184.29 163L158.92 163L158.92 124.36L168.66 124.36L168.66 154.21L184.29 154.21M229.65 153.14L229.65 134.22Q229.65 124.36 239.51 124.36L252.05 124.36Q261.91 124.36 261.91 134.22L261.91 153.14Q261.91 163 252.05 163L239.51 163Q229.65 163 229.65 153.14M239.40 133.77L239.40 153.59Q239.40 154.21 240.01 154.21L251.55 154.21Q252.17 154.21 252.17 153.59L252.17 133.77Q252.17 133.15 251.55 133.15L240.01 133.15Q239.40 133.15 239.40 133.77M309.96 153.14L309.96 124.36L319.71 124.36L319.71 153.59Q319.71 154.21 320.32 154.21L330.74 154.21Q331.36 154.21 331.36 153.59L331.36 124.36L341.10 124.36L341.10 153.14Q341.10 163 331.25 163L319.82 163Q309.96 163 309.96 153.14M404.16 163L389.72 163L389.72 124.36L404.16 124.36Q420.85 124.36 420.85 141.05L420.85 146.31Q420.85 163 404.16 163M399.46 133.15L399.46 154.21L404.72 154.21Q411.11 154.21 411.11 147.77L411.11 139.59Q411.11 133.15 404.72 133.15" transform="translate(3,3)" fill="#071320"/><path d="M33.20 100L15.80 100L15.80 31L33.20 31L33.20 57L54 57L54 31L71.40 31L71.40 100L54 100L54 72.70L33.20 72.70M83 100L80.90 96.80L100.40 31L126.40 31L145.90 96.80L143.80 100L129.20 100L125.80 87.70L101 87.70L97.60 100L83 100M112.80 46.70L105.60 72L121.20 72L114 46.70M172.80 100L155.40 100L155.40 31L174.20 31L197.10 71L197.10 31L214.50 31L214.50 100L195.80 100L172.80 60M229.10 82.40L229.10 48.60Q229.10 31 246.70 31L274.90 31L282.70 37L282.70 46.70L247.60 46.70Q246.50 46.70 246.50 47.80L246.50 83.20Q246.50 84.30 247.60 84.30L267.30 84.30L267.30 72.70L256 72.70L256 57L284.70 57L284.70 100L246.70 100Q229.10 100 229.10 82.40M294.30 100L292.20 96.80L311.70 31L337.70 31L357.20 96.80L355.10 100L340.50 100L337.10 87.70L312.30 87.70L308.90 100L294.30 100M324.10 46.70L316.90 72L332.50 72L325.30 46.70M384.10 100L366.70 100L366.70 31L400.70 31Q418.30 31 418.30 48.60L418.30 60.20Q418.30 72.40 409.90 76.20L420.30 96.50L418.30 100L403.30 100L391.90 77.70L384.10 77.70L384.10 100M384.10 46.70L384.10 62L399.80 62Q400.90 62 400.90 60.90L400.90 47.80Q400.90 46.70 399.80 46.70" fill="url(#g1)" stroke="#1d262e" stroke-width="1.6"/><path d="M82.81 153.14L82.81 134.22Q82.81 124.36 92.66 124.36L107.17 124.36L111.54 127.72L111.54 133.15L93.17 133.15Q92.55 133.15 92.55 133.77L92.55 153.59Q92.55 154.21 93.17 154.21L111.54 154.21L111.54 159.64L107.17 163L92.66 163Q82.81 163 82.81 153.14M184.29 163L158.92 163L158.92 124.36L168.66 124.36L168.66 154.21L184.29 154.21M229.65 153.14L229.65 134.22Q229.65 124.36 239.51 124.36L252.05 124.36Q261.91 124.36 261.91 134.22L261.91 153.14Q261.91 163 252.05 163L239.51 163Q229.65 163 229.65 153.14M239.40 133.77L239.40 153.59Q239.40 154.21 240.01 154.21L251.55 154.21Q252.17 154.21 252.17 153.59L252.17 133.77Q252.17 133.15 251.55 133.15L240.01 133.15Q239.40 133.15 239.40 133.77M309.96 153.14L309.96 124.36L319.71 124.36L319.71 153.59Q319.71 154.21 320.32 154.21L330.74 154.21Q331.36 154.21 331.36 153.59L331.36 124.36L341.10 124.36L341.10 153.14Q341.10 163 331.25 163L319.82 163Q309.96 163 309.96 153.14M404.16 163L389.72 163L389.72 124.36L404.16 124.36Q420.85 124.36 420.85 141.05L420.85 146.31Q420.85 163 404.16 163M399.46 133.15L399.46 154.21L404.72 154.21Q411.11 154.21 411.11 147.77L411.11 139.59Q411.11 133.15 404.72 133.15" fill="url(#g2)" stroke="#0e2230" stroke-width="1.3"/></g><rect width="435" height="177" fill="url(#spec)" clip-path="url(#letters)"/></svg>
