<svg xmlns="http://www.w3.org/2000/svg" viewBox="0 0 96 96" role="img" aria-label="Hangar Network"><defs><linearGradient id="plate" x1="0" y1="0" x2="0" y2="1"><stop offset="0" stop-color="#34383e"/><stop offset=".55" stop-color="#22252a"/><stop offset="1" stop-color="#191b1f"/></linearGradient><linearGradient id="hg" gradientUnits="userSpaceOnUse" x1="0" y1="25" x2="0" y2="71"><stop offset="0" stop-color="#ffd75e"/><stop offset=".16" stop-color="#ffbe1d"/><stop offset=".44" stop-color="#ff8000"/><stop offset=".60" stop-color="#f26522"/><stop offset=".80" stop-color="#b34a00"/><stop offset="1" stop-color="#6e2f00"/></linearGradient><radialGradient id="riv" cx=".32" cy=".28" r="1"><stop offset="0" stop-color="#8a9099"/><stop offset=".52" stop-color="#3c4046"/><stop offset="1" stop-color="#0e0f11"/></radialGradient><filter id="glow" x="-60%" y="-60%" width="220%" height="220%"><feGaussianBlur stdDeviation="7"/></filter></defs><rect x="1.5" y="1.5" width="93" height="93" rx="16" fill="url(#plate)" stroke="#000" stroke-width="1.6"/><rect x="3.6" y="3.6" width="88.8" height="88.8" rx="14" fill="none" stroke="#fff" stroke-opacity=".09" stroke-width="1.2"/><ellipse cx="48" cy="62" rx="26" ry="12" fill="#ff8000" opacity=".38" filter="url(#glow)"/><circle cx="12" cy="12" r="3.2" fill="url(#riv)"/><path d="M 9.8 13.6 L 14.2 10.4" stroke="#0a0b0d" stroke-width="1.1"/><circle cx="84" cy="12" r="3.2" fill="url(#riv)"/><path d="M 81.8 13.6 L 86.2 10.4" stroke="#0a0b0d" stroke-width="1.1"/><circle cx="12" cy="84" r="3.2" fill="url(#riv)"/><path d="M 9.8 85.6 L 14.2 82.4" stroke="#0a0b0d" stroke-width="1.1"/><circle cx="84" cy="84" r="3.2" fill="url(#riv)"/><path d="M 81.8 85.6 L 86.2 82.4" stroke="#0a0b0d" stroke-width="1.1"/><path d="M41.76 69L31.32 69L31.32 27.60L41.76 27.60L41.76 43.20L54.24 43.20L54.24 27.60L64.68 27.60L64.68 69L54.24 69L54.24 52.62L41.76 52.62" transform="translate(1.6,1.6)" fill="#1a0c02"/><path d="M41.76 69L31.32 69L31.32 27.60L41.76 27.60L41.76 43.20L54.24 43.20L54.24 27.60L64.68 27.60L64.68 69L54.24 69L54.24 52.62L41.76 52.62" fill="url(#hg)" stroke="#2c1403" stroke-width="1.4"/></svg>
