<svg xmlns="http://www.w3.org/2000/svg" viewBox="0 0 435 170" role="img" aria-label="HANGAR SITES"><defs><linearGradient id="g1" gradientUnits="userSpaceOnUse" x1="0" y1="26" x2="0" y2="102"><stop offset="0" stop-color="#ffffff"/><stop offset=".24" stop-color="#e9eff5"/><stop offset=".50" stop-color="#c3d0dc"/><stop offset=".52" stop-color="#7f97a9"/><stop offset=".62" stop-color="#a9bac7"/><stop offset=".84" stop-color="#e6edf3"/><stop offset="1" stop-color="#f9fbfd"/></linearGradient><linearGradient id="g2" gradientUnits="userSpaceOnUse" x1="0" y1="126" x2="0" y2="158"><stop offset="0" stop-color="#ffd75e"/><stop offset=".16" stop-color="#ffbe1d"/><stop offset=".44" stop-color="#ff8000"/><stop offset=".60" stop-color="#f26522"/><stop offset=".80" stop-color="#b34a00"/><stop offset="1" stop-color="#6e2f00"/></linearGradient><linearGradient id="spec" gradientUnits="userSpaceOnUse" x1="0" y1="0" x2="435" y2="170"><stop offset=".30" stop-color="#fff" stop-opacity="0"/><stop offset=".46" stop-color="#fff" stop-opacity=".32"/><stop offset=".52" stop-color="#fff" stop-opacity=".08"/><stop offset=".62" stop-color="#fff" stop-opacity="0"/></linearGradient><clipPath id="letters"><path d="M33.20 100L15.80 100L15.80 31L33.20 31L33.20 57L54 57L54 31L71.40 31L71.40 100L54 100L54 72.70L33.20 72.70M83 100L80.90 96.80L100.40 31L126.40 31L145.90 96.80L143.80 100L129.20 100L125.80 87.70L101 87.70L97.60 100L83 100M112.80 46.70L105.60 72L121.20 72L114 46.70M172.80 100L155.40 100L155.40 31L174.20 31L197.10 71L197.10 31L214.50 31L214.50 100L195.80 100L172.80 60M229.10 82.40L229.10 48.60Q229.10 31 246.70 31L274.90 31L282.70 37L282.70 46.70L247.60 46.70Q246.50 46.70 246.50 47.80L246.50 83.20Q246.50 84.30 247.60 84.30L267.30 84.30L267.30 72.70L256 72.70L256 57L284.70 57L284.70 100L246.70 100Q229.10 100 229.10 82.40M294.30 100L292.20 96.80L311.70 31L337.70 31L357.20 96.80L355.10 100L340.50 100L337.10 87.70L312.30 87.70L308.90 100L294.30 100M324.10 46.70L316.90 72L332.50 72L325.30 46.70M384.10 100L366.70 100L366.70 31L400.70 31Q418.30 31 418.30 48.60L418.30 60.20Q418.30 72.40 409.90 76.20L420.30 96.50L418.30 100L403.30 100L391.90 77.70L384.10 77.70L384.10 100M384.10 46.70L384.10 62L399.80 62Q400.90 62 400.90 60.90L400.90 47.80Q400.90 46.70 399.80 46.70"/><path d="M84.04 156L80.92 153.60L80.92 149.72L93.36 149.72Q93.80 149.72 93.80 149.28L93.80 146.56Q93.80 146 93.32 145.92L85.92 144.40Q80.92 143.44 80.92 137.72L80.92 135.44Q80.92 128.40 87.96 128.40L96.84 128.40L99.96 130.80L99.96 134.68L88.32 134.68Q87.88 134.68 87.88 135.12L87.88 137.68Q87.88 138.20 88.36 138.32L95.76 139.76Q100.76 140.80 100.76 146.48L100.76 148.96Q100.76 156 93.72 156M171.57 156L164.61 156L164.61 128.40L171.57 128.40M242.45 134.68L234.45 134.68L234.45 128.40L257.41 128.40L257.41 134.68L249.41 134.68L249.41 156L242.45 156M339.62 156L320.30 156L320.30 128.40L339.62 128.40L339.62 134.68L327.25 134.68L327.25 138.80L338.42 138.80L338.42 145.08L327.25 145.08L327.25 149.72L339.62 149.72M405.46 156L402.34 153.60L402.34 149.72L414.78 149.72Q415.22 149.72 415.22 149.28L415.22 146.56Q415.22 146 414.74 145.92L407.34 144.40Q402.34 143.44 402.34 137.72L402.34 135.44Q402.34 128.40 409.38 128.40L418.26 128.40L421.38 130.80L421.38 134.68L409.74 134.68Q409.30 134.68 409.30 135.12L409.30 137.68Q409.30 138.20 409.78 138.32L417.18 139.76Q422.18 140.80 422.18 146.48L422.18 148.96Q422.18 156 415.14 156"/></clipPath><filter id="ds" x="-8%" y="-12%" width="116%" height="130%"><feDropShadow dx="0" dy="3" stdDeviation="3" flood-color="#000" flood-opacity=".55"/></filter></defs><g filter="url(#ds)"><path d="M33.20 100L15.80 100L15.80 31L33.20 31L33.20 57L54 57L54 31L71.40 31L71.40 100L54 100L54 72.70L33.20 72.70M83 100L80.90 96.80L100.40 31L126.40 31L145.90 96.80L143.80 100L129.20 100L125.80 87.70L101 87.70L97.60 100L83 100M112.80 46.70L105.60 72L121.20 72L114 46.70M172.80 100L155.40 100L155.40 31L174.20 31L197.10 71L197.10 31L214.50 31L214.50 100L195.80 100L172.80 60M229.10 82.40L229.10 48.60Q229.10 31 246.70 31L274.90 31L282.70 37L282.70 46.70L247.60 46.70Q246.50 46.70 246.50 47.80L246.50 83.20Q246.50 84.30 247.60 84.30L267.30 84.30L267.30 72.70L256 72.70L256 57L284.70 57L284.70 100L246.70 100Q229.10 100 229.10 82.40M294.30 100L292.20 96.80L311.70 31L337.70 31L357.20 96.80L355.10 100L340.50 100L337.10 87.70L312.30 87.70L308.90 100L294.30 100M324.10 46.70L316.90 72L332.50 72L325.30 46.70M384.10 100L366.70 100L366.70 31L400.70 31Q418.30 31 418.30 48.60L418.30 60.20Q418.30 72.40 409.90 76.20L420.30 96.50L418.30 100L403.30 100L391.90 77.70L384.10 77.70L384.10 100M384.10 46.70L384.10 62L399.80 62Q400.90 62 400.90 60.90L400.90 47.80Q400.90 46.70 399.80 46.70" transform="translate(3,3)" fill="#0d1216"/><path d="M84.04 156L80.92 153.60L80.92 149.72L93.36 149.72Q93.80 149.72 93.80 149.28L93.80 146.56Q93.80 146 93.32 145.92L85.92 144.40Q80.92 143.44 80.92 137.72L80.92 135.44Q80.92 128.40 87.96 128.40L96.84 128.40L99.96 130.80L99.96 134.68L88.32 134.68Q87.88 134.68 87.88 135.12L87.88 137.68Q87.88 138.20 88.36 138.32L95.76 139.76Q100.76 140.80 100.76 146.48L100.76 148.96Q100.76 156 93.72 156M171.57 156L164.61 156L164.61 128.40L171.57 128.40M242.45 134.68L234.45 134.68L234.45 128.40L257.41 128.40L257.41 134.68L249.41 134.68L249.41 156L242.45 156M339.62 156L320.30 156L320.30 128.40L339.62 128.40L339.62 134.68L327.25 134.68L327.25 138.80L338.42 138.80L338.42 145.08L327.25 145.08L327.25 149.72L339.62 149.72M405.46 156L402.34 153.60L402.34 149.72L414.78 149.72Q415.22 149.72 415.22 149.28L415.22 146.56Q415.22 146 414.74 145.92L407.34 144.40Q402.34 143.44 402.34 137.72L402.34 135.44Q402.34 128.40 409.38 128.40L418.26 128.40L421.38 130.80L421.38 134.68L409.74 134.68Q409.30 134.68 409.30 135.12L409.30 137.68Q409.30 138.20 409.78 138.32L417.18 139.76Q422.18 140.80 422.18 146.48L422.18 148.96Q422.18 156 415.14 156" transform="translate(3,3)" fill="#1a0c02"/><path d="M33.20 100L15.80 100L15.80 31L33.20 31L33.20 57L54 57L54 31L71.40 31L71.40 100L54 100L54 72.70L33.20 72.70M83 100L80.90 96.80L100.40 31L126.40 31L145.90 96.80L143.80 100L129.20 100L125.80 87.70L101 87.70L97.60 100L83 100M112.80 46.70L105.60 72L121.20 72L114 46.70M172.80 100L155.40 100L155.40 31L174.20 31L197.10 71L197.10 31L214.50 31L214.50 100L195.80 100L172.80 60M229.10 82.40L229.10 48.60Q229.10 31 246.70 31L274.90 31L282.70 37L282.70 46.70L247.60 46.70Q246.50 46.70 246.50 47.80L246.50 83.20Q246.50 84.30 247.60 84.30L267.30 84.30L267.30 72.70L256 72.70L256 57L284.70 57L284.70 100L246.70 100Q229.10 100 229.10 82.40M294.30 100L292.20 96.80L311.70 31L337.70 31L357.20 96.80L355.10 100L340.50 100L337.10 87.70L312.30 87.70L308.90 100L294.30 100M324.10 46.70L316.90 72L332.50 72L325.30 46.70M384.10 100L366.70 100L366.70 31L400.70 31Q418.30 31 418.30 48.60L418.30 60.20Q418.30 72.40 409.90 76.20L420.30 96.50L418.30 100L403.30 100L391.90 77.70L384.10 77.70L384.10 100M384.10 46.70L384.10 62L399.80 62Q400.90 62 400.90 60.90L400.90 47.80Q400.90 46.70 399.80 46.70" fill="url(#g1)" stroke="#1d262e" stroke-width="1.6"/><path d="M84.04 156L80.92 153.60L80.92 149.72L93.36 149.72Q93.80 149.72 93.80 149.28L93.80 146.56Q93.80 146 93.32 145.92L85.92 144.40Q80.92 143.44 80.92 137.72L80.92 135.44Q80.92 128.40 87.96 128.40L96.84 128.40L99.96 130.80L99.96 134.68L88.32 134.68Q87.88 134.68 87.88 135.12L87.88 137.68Q87.88 138.20 88.36 138.32L95.76 139.76Q100.76 140.80 100.76 146.48L100.76 148.96Q100.76 156 93.72 156M171.57 156L164.61 156L164.61 128.40L171.57 128.40M242.45 134.68L234.45 134.68L234.45 128.40L257.41 128.40L257.41 134.68L249.41 134.68L249.41 156L242.45 156M339.62 156L320.30 156L320.30 128.40L339.62 128.40L339.62 134.68L327.25 134.68L327.25 138.80L338.42 138.80L338.42 145.08L327.25 145.08L327.25 149.72L339.62 149.72M405.46 156L402.34 153.60L402.34 149.72L414.78 149.72Q415.22 149.72 415.22 149.28L415.22 146.56Q415.22 146 414.74 145.92L407.34 144.40Q402.34 143.44 402.34 137.72L402.34 135.44Q402.34 128.40 409.38 128.40L418.26 128.40L421.38 130.80L421.38 134.68L409.74 134.68Q409.30 134.68 409.30 135.12L409.30 137.68Q409.30 138.20 409.78 138.32L417.18 139.76Q422.18 140.80 422.18 146.48L422.18 148.96Q422.18 156 415.14 156" fill="url(#g2)" stroke="#2c1403" stroke-width="1.3"/></g><rect width="435" height="170" fill="url(#spec)" clip-path="url(#letters)"/></svg>
