<svg xmlns="http://www.w3.org/2000/svg" viewBox="0 0 435 170" role="img" aria-label="HANGAR CLOUD"><defs><linearGradient id="g1" gradientUnits="userSpaceOnUse" x1="0" y1="26" x2="0" y2="102"><stop offset="0" stop-color="#ffffff"/><stop offset=".24" stop-color="#e9eff5"/><stop offset=".50" stop-color="#c3d0dc"/><stop offset=".52" stop-color="#7f97a9"/><stop offset=".62" stop-color="#a9bac7"/><stop offset=".84" stop-color="#e6edf3"/><stop offset="1" stop-color="#f9fbfd"/></linearGradient><linearGradient id="g2" gradientUnits="userSpaceOnUse" x1="0" y1="126" x2="0" y2="158"><stop offset="0" stop-color="#ffd75e"/><stop offset=".16" stop-color="#ffbe1d"/><stop offset=".44" stop-color="#ff8000"/><stop offset=".60" stop-color="#f26522"/><stop offset=".80" stop-color="#b34a00"/><stop offset="1" stop-color="#6e2f00"/></linearGradient><linearGradient id="spec" gradientUnits="userSpaceOnUse" x1="0" y1="0" x2="435" y2="170"><stop offset=".30" stop-color="#fff" stop-opacity="0"/><stop offset=".46" stop-color="#fff" stop-opacity=".32"/><stop offset=".52" stop-color="#fff" stop-opacity=".08"/><stop offset=".62" stop-color="#fff" stop-opacity="0"/></linearGradient><clipPath id="letters"><path d="M33.20 100L15.80 100L15.80 31L33.20 31L33.20 57L54 57L54 31L71.40 31L71.40 100L54 100L54 72.70L33.20 72.70M83 100L80.90 96.80L100.40 31L126.40 31L145.90 96.80L143.80 100L129.20 100L125.80 87.70L101 87.70L97.60 100L83 100M112.80 46.70L105.60 72L121.20 72L114 46.70M172.80 100L155.40 100L155.40 31L174.20 31L197.10 71L197.10 31L214.50 31L214.50 100L195.80 100L172.80 60M229.10 82.40L229.10 48.60Q229.10 31 246.70 31L274.90 31L282.70 37L282.70 46.70L247.60 46.70Q246.50 46.70 246.50 47.80L246.50 83.20Q246.50 84.30 247.60 84.30L267.30 84.30L267.30 72.70L256 72.70L256 57L284.70 57L284.70 100L246.70 100Q229.10 100 229.10 82.40M294.30 100L292.20 96.80L311.70 31L337.70 31L357.20 96.80L355.10 100L340.50 100L337.10 87.70L312.30 87.70L308.90 100L294.30 100M324.10 46.70L316.90 72L332.50 72L325.30 46.70M384.10 100L366.70 100L366.70 31L400.70 31Q418.30 31 418.30 48.60L418.30 60.20Q418.30 72.40 409.90 76.20L420.30 96.50L418.30 100L403.30 100L391.90 77.70L384.10 77.70L384.10 100M384.10 46.70L384.10 62L399.80 62Q400.90 62 400.90 60.90L400.90 47.80Q400.90 46.70 399.80 46.70"/><path d="M81.72 148.96L81.72 135.44Q81.72 128.40 88.76 128.40L99.12 128.40L102.24 130.80L102.24 134.68L89.12 134.68Q88.68 134.68 88.68 135.12L88.68 149.28Q88.68 149.72 89.12 149.72L102.24 149.72L102.24 153.60L99.12 156L88.76 156Q81.72 156 81.72 148.96M178.86 156L160.74 156L160.74 128.40L167.70 128.40L167.70 149.72L178.86 149.72M235.91 148.96L235.91 135.44Q235.91 128.40 242.95 128.40L251.91 128.40Q258.95 128.40 258.95 135.44L258.95 148.96Q258.95 156 251.91 156L242.95 156Q235.91 156 235.91 148.96M242.87 135.12L242.87 149.28Q242.87 149.72 243.31 149.72L251.55 149.72Q251.99 149.72 251.99 149.28L251.99 135.12Q251.99 134.68 251.55 134.68L243.31 134.68Q242.87 134.68 242.87 135.12M317.93 148.96L317.93 128.40L324.88 128.40L324.88 149.28Q324.88 149.72 325.32 149.72L332.76 149.72Q333.21 149.72 333.21 149.28L333.21 128.40L340.17 128.40L340.17 148.96Q340.17 156 333.13 156L324.97 156Q317.93 156 317.93 148.96M409.86 156L399.54 156L399.54 128.40L409.86 128.40Q421.78 128.40 421.78 140.32L421.78 144.08Q421.78 156 409.86 156M406.50 134.68L406.50 149.72L410.26 149.72Q414.82 149.72 414.82 145.12L414.82 139.28Q414.82 134.68 410.26 134.68"/></clipPath><filter id="ds" x="-8%" y="-12%" width="116%" height="130%"><feDropShadow dx="0" dy="3" stdDeviation="3" flood-color="#000" flood-opacity=".55"/></filter></defs><g filter="url(#ds)"><path d="M33.20 100L15.80 100L15.80 31L33.20 31L33.20 57L54 57L54 31L71.40 31L71.40 100L54 100L54 72.70L33.20 72.70M83 100L80.90 96.80L100.40 31L126.40 31L145.90 96.80L143.80 100L129.20 100L125.80 87.70L101 87.70L97.60 100L83 100M112.80 46.70L105.60 72L121.20 72L114 46.70M172.80 100L155.40 100L155.40 31L174.20 31L197.10 71L197.10 31L214.50 31L214.50 100L195.80 100L172.80 60M229.10 82.40L229.10 48.60Q229.10 31 246.70 31L274.90 31L282.70 37L282.70 46.70L247.60 46.70Q246.50 46.70 246.50 47.80L246.50 83.20Q246.50 84.30 247.60 84.30L267.30 84.30L267.30 72.70L256 72.70L256 57L284.70 57L284.70 100L246.70 100Q229.10 100 229.10 82.40M294.30 100L292.20 96.80L311.70 31L337.70 31L357.20 96.80L355.10 100L340.50 100L337.10 87.70L312.30 87.70L308.90 100L294.30 100M324.10 46.70L316.90 72L332.50 72L325.30 46.70M384.10 100L366.70 100L366.70 31L400.70 31Q418.30 31 418.30 48.60L418.30 60.20Q418.30 72.40 409.90 76.20L420.30 96.50L418.30 100L403.30 100L391.90 77.70L384.10 77.70L384.10 100M384.10 46.70L384.10 62L399.80 62Q400.90 62 400.90 60.90L400.90 47.80Q400.90 46.70 399.80 46.70" transform="translate(3,3)" fill="#0d1216"/><path d="M81.72 148.96L81.72 135.44Q81.72 128.40 88.76 128.40L99.12 128.40L102.24 130.80L102.24 134.68L89.12 134.68Q88.68 134.68 88.68 135.12L88.68 149.28Q88.68 149.72 89.12 149.72L102.24 149.72L102.24 153.60L99.12 156L88.76 156Q81.72 156 81.72 148.96M178.86 156L160.74 156L160.74 128.40L167.70 128.40L167.70 149.72L178.86 149.72M235.91 148.96L235.91 135.44Q235.91 128.40 242.95 128.40L251.91 128.40Q258.95 128.40 258.95 135.44L258.95 148.96Q258.95 156 251.91 156L242.95 156Q235.91 156 235.91 148.96M242.87 135.12L242.87 149.28Q242.87 149.72 243.31 149.72L251.55 149.72Q251.99 149.72 251.99 149.28L251.99 135.12Q251.99 134.68 251.55 134.68L243.31 134.68Q242.87 134.68 242.87 135.12M317.93 148.96L317.93 128.40L324.88 128.40L324.88 149.28Q324.88 149.72 325.32 149.72L332.76 149.72Q333.21 149.72 333.21 149.28L333.21 128.40L340.17 128.40L340.17 148.96Q340.17 156 333.13 156L324.97 156Q317.93 156 317.93 148.96M409.86 156L399.54 156L399.54 128.40L409.86 128.40Q421.78 128.40 421.78 140.32L421.78 144.08Q421.78 156 409.86 156M406.50 134.68L406.50 149.72L410.26 149.72Q414.82 149.72 414.82 145.12L414.82 139.28Q414.82 134.68 410.26 134.68" transform="translate(3,3)" fill="#1a0c02"/><path d="M33.20 100L15.80 100L15.80 31L33.20 31L33.20 57L54 57L54 31L71.40 31L71.40 100L54 100L54 72.70L33.20 72.70M83 100L80.90 96.80L100.40 31L126.40 31L145.90 96.80L143.80 100L129.20 100L125.80 87.70L101 87.70L97.60 100L83 100M112.80 46.70L105.60 72L121.20 72L114 46.70M172.80 100L155.40 100L155.40 31L174.20 31L197.10 71L197.10 31L214.50 31L214.50 100L195.80 100L172.80 60M229.10 82.40L229.10 48.60Q229.10 31 246.70 31L274.90 31L282.70 37L282.70 46.70L247.60 46.70Q246.50 46.70 246.50 47.80L246.50 83.20Q246.50 84.30 247.60 84.30L267.30 84.30L267.30 72.70L256 72.70L256 57L284.70 57L284.70 100L246.70 100Q229.10 100 229.10 82.40M294.30 100L292.20 96.80L311.70 31L337.70 31L357.20 96.80L355.10 100L340.50 100L337.10 87.70L312.30 87.70L308.90 100L294.30 100M324.10 46.70L316.90 72L332.50 72L325.30 46.70M384.10 100L366.70 100L366.70 31L400.70 31Q418.30 31 418.30 48.60L418.30 60.20Q418.30 72.40 409.90 76.20L420.30 96.50L418.30 100L403.30 100L391.90 77.70L384.10 77.70L384.10 100M384.10 46.70L384.10 62L399.80 62Q400.90 62 400.90 60.90L400.90 47.80Q400.90 46.70 399.80 46.70" fill="url(#g1)" stroke="#1d262e" stroke-width="1.6"/><path d="M81.72 148.96L81.72 135.44Q81.72 128.40 88.76 128.40L99.12 128.40L102.24 130.80L102.24 134.68L89.12 134.68Q88.68 134.68 88.68 135.12L88.68 149.28Q88.68 149.72 89.12 149.72L102.24 149.72L102.24 153.60L99.12 156L88.76 156Q81.72 156 81.72 148.96M178.86 156L160.74 156L160.74 128.40L167.70 128.40L167.70 149.72L178.86 149.72M235.91 148.96L235.91 135.44Q235.91 128.40 242.95 128.40L251.91 128.40Q258.95 128.40 258.95 135.44L258.95 148.96Q258.95 156 251.91 156L242.95 156Q235.91 156 235.91 148.96M242.87 135.12L242.87 149.28Q242.87 149.72 243.31 149.72L251.55 149.72Q251.99 149.72 251.99 149.28L251.99 135.12Q251.99 134.68 251.55 134.68L243.31 134.68Q242.87 134.68 242.87 135.12M317.93 148.96L317.93 128.40L324.88 128.40L324.88 149.28Q324.88 149.72 325.32 149.72L332.76 149.72Q333.21 149.72 333.21 149.28L333.21 128.40L340.17 128.40L340.17 148.96Q340.17 156 333.13 156L324.97 156Q317.93 156 317.93 148.96M409.86 156L399.54 156L399.54 128.40L409.86 128.40Q421.78 128.40 421.78 140.32L421.78 144.08Q421.78 156 409.86 156M406.50 134.68L406.50 149.72L410.26 149.72Q414.82 149.72 414.82 145.12L414.82 139.28Q414.82 134.68 410.26 134.68" fill="url(#g2)" stroke="#2c1403" stroke-width="1.3"/></g><rect width="435" height="170" fill="url(#spec)" clip-path="url(#letters)"/></svg>
