<svg xmlns="http://www.w3.org/2000/svg" viewBox="0 0 435 177" role="img" aria-label="HANGAR SITES"><defs><linearGradient id="g1" gradientUnits="userSpaceOnUse" x1="0" y1="26" x2="0" y2="102"><stop offset="0" stop-color="#ffffff"/><stop offset=".24" stop-color="#e9eff5"/><stop offset=".50" stop-color="#c3d0dc"/><stop offset=".52" stop-color="#7f97a9"/><stop offset=".62" stop-color="#a9bac7"/><stop offset=".84" stop-color="#e6edf3"/><stop offset="1" stop-color="#f9fbfd"/></linearGradient><linearGradient id="g2" gradientUnits="userSpaceOnUse" x1="0" y1="121" x2="0" y2="165"><stop offset="0" stop-color="#fff3c4"/><stop offset=".22" stop-color="#ffe27a"/><stop offset=".50" stop-color="#ffc61d"/><stop offset=".78" stop-color="#e09b00"/><stop offset="1" stop-color="#8f6200"/></linearGradient><linearGradient id="spec" gradientUnits="userSpaceOnUse" x1="0" y1="0" x2="435" y2="177"><stop offset=".30" stop-color="#fff" stop-opacity="0"/><stop offset=".46" stop-color="#fff" stop-opacity=".32"/><stop offset=".52" stop-color="#fff" stop-opacity=".08"/><stop offset=".62" stop-color="#fff" stop-opacity="0"/></linearGradient><clipPath id="letters"><path d="M33.20 100L15.80 100L15.80 31L33.20 31L33.20 57L54 57L54 31L71.40 31L71.40 100L54 100L54 72.70L33.20 72.70M83 100L80.90 96.80L100.40 31L126.40 31L145.90 96.80L143.80 100L129.20 100L125.80 87.70L101 87.70L97.60 100L83 100M112.80 46.70L105.60 72L121.20 72L114 46.70M172.80 100L155.40 100L155.40 31L174.20 31L197.10 71L197.10 31L214.50 31L214.50 100L195.80 100L172.80 60M229.10 82.40L229.10 48.60Q229.10 31 246.70 31L274.90 31L282.70 37L282.70 46.70L247.60 46.70Q246.50 46.70 246.50 47.80L246.50 83.20Q246.50 84.30 247.60 84.30L267.30 84.30L267.30 72.70L256 72.70L256 57L284.70 57L284.70 100L246.70 100Q229.10 100 229.10 82.40M294.30 100L292.20 96.80L311.70 31L337.70 31L357.20 96.80L355.10 100L340.50 100L337.10 87.70L312.30 87.70L308.90 100L294.30 100M324.10 46.70L316.90 72L332.50 72L325.30 46.70M384.10 100L366.70 100L366.70 31L400.70 31Q418.30 31 418.30 48.60L418.30 60.20Q418.30 72.40 409.90 76.20L420.30 96.50L418.30 100L403.30 100L391.90 77.70L384.10 77.70L384.10 100M384.10 46.70L384.10 62L399.80 62Q400.90 62 400.90 60.90L400.90 47.80Q400.90 46.70 399.80 46.70"/><path d="M86.06 163L81.69 159.64L81.69 154.21L99.10 154.21Q99.72 154.21 99.72 153.59L99.72 149.78Q99.72 149 99.05 148.89L88.69 146.76Q81.69 145.42 81.69 137.41L81.69 134.22Q81.69 124.36 91.54 124.36L103.98 124.36L108.34 127.72L108.34 133.15L92.05 133.15Q91.43 133.15 91.43 133.77L91.43 137.35Q91.43 138.08 92.10 138.25L102.46 140.26Q109.46 141.72 109.46 149.67L109.46 153.14Q109.46 163 99.61 163M174.08 163L164.34 163L164.34 124.36L174.08 124.36M238.81 133.15L227.61 133.15L227.61 124.36L259.75 124.36L259.75 133.15L248.55 133.15L248.55 163L238.81 163M340.33 163L313.28 163L313.28 124.36L340.33 124.36L340.33 133.15L323.03 133.15L323.03 138.92L338.65 138.92L338.65 147.71L323.03 147.71L323.03 154.21L340.33 154.21M398 163L393.64 159.64L393.64 154.21L411.05 154.21Q411.67 154.21 411.67 153.59L411.67 149.78Q411.67 149 411 148.89L400.64 146.76Q393.64 145.42 393.64 137.41L393.64 134.22Q393.64 124.36 403.49 124.36L415.92 124.36L420.29 127.72L420.29 133.15L404 133.15Q403.38 133.15 403.38 133.77L403.38 137.35Q403.38 138.08 404.05 138.25L414.41 140.26Q421.41 141.72 421.41 149.67L421.41 153.14Q421.41 163 411.56 163"/></clipPath><clipPath id="word2"><path d="M86.06 163L81.69 159.64L81.69 154.21L99.10 154.21Q99.72 154.21 99.72 153.59L99.72 149.78Q99.72 149 99.05 148.89L88.69 146.76Q81.69 145.42 81.69 137.41L81.69 134.22Q81.69 124.36 91.54 124.36L103.98 124.36L108.34 127.72L108.34 133.15L92.05 133.15Q91.43 133.15 91.43 133.77L91.43 137.35Q91.43 138.08 92.10 138.25L102.46 140.26Q109.46 141.72 109.46 149.67L109.46 153.14Q109.46 163 99.61 163M174.08 163L164.34 163L164.34 124.36L174.08 124.36M238.81 133.15L227.61 133.15L227.61 124.36L259.75 124.36L259.75 133.15L248.55 133.15L248.55 163L238.81 163M340.33 163L313.28 163L313.28 124.36L340.33 124.36L340.33 133.15L323.03 133.15L323.03 138.92L338.65 138.92L338.65 147.71L323.03 147.71L323.03 154.21L340.33 154.21M398 163L393.64 159.64L393.64 154.21L411.05 154.21Q411.67 154.21 411.67 153.59L411.67 149.78Q411.67 149 411 148.89L400.64 146.76Q393.64 145.42 393.64 137.41L393.64 134.22Q393.64 124.36 403.49 124.36L415.92 124.36L420.29 127.72L420.29 133.15L404 133.15Q403.38 133.15 403.38 133.77L403.38 137.35Q403.38 138.08 404.05 138.25L414.41 140.26Q421.41 141.72 421.41 149.67L421.41 153.14Q421.41 163 411.56 163"/></clipPath><radialGradient id="hole"><stop offset="0" stop-color="#050101"/><stop offset=".62" stop-color="#1a0404"/><stop offset=".88" stop-color="#3d0f0c"/><stop offset="1" stop-color="#54140f"/></radialGradient><filter id="ds" x="-8%" y="-12%" width="116%" height="130%"><feDropShadow dx="0" dy="3" stdDeviation="3" flood-color="#000" flood-opacity=".55"/></filter></defs><g filter="url(#ds)"><path d="M33.20 100L15.80 100L15.80 31L33.20 31L33.20 57L54 57L54 31L71.40 31L71.40 100L54 100L54 72.70L33.20 72.70M83 100L80.90 96.80L100.40 31L126.40 31L145.90 96.80L143.80 100L129.20 100L125.80 87.70L101 87.70L97.60 100L83 100M112.80 46.70L105.60 72L121.20 72L114 46.70M172.80 100L155.40 100L155.40 31L174.20 31L197.10 71L197.10 31L214.50 31L214.50 100L195.80 100L172.80 60M229.10 82.40L229.10 48.60Q229.10 31 246.70 31L274.90 31L282.70 37L282.70 46.70L247.60 46.70Q246.50 46.70 246.50 47.80L246.50 83.20Q246.50 84.30 247.60 84.30L267.30 84.30L267.30 72.70L256 72.70L256 57L284.70 57L284.70 100L246.70 100Q229.10 100 229.10 82.40M294.30 100L292.20 96.80L311.70 31L337.70 31L357.20 96.80L355.10 100L340.50 100L337.10 87.70L312.30 87.70L308.90 100L294.30 100M324.10 46.70L316.90 72L332.50 72L325.30 46.70M384.10 100L366.70 100L366.70 31L400.70 31Q418.30 31 418.30 48.60L418.30 60.20Q418.30 72.40 409.90 76.20L420.30 96.50L418.30 100L403.30 100L391.90 77.70L384.10 77.70L384.10 100M384.10 46.70L384.10 62L399.80 62Q400.90 62 400.90 60.90L400.90 47.80Q400.90 46.70 399.80 46.70" transform="translate(3,3)" fill="#0d1216"/><path d="M86.06 163L81.69 159.64L81.69 154.21L99.10 154.21Q99.72 154.21 99.72 153.59L99.72 149.78Q99.72 149 99.05 148.89L88.69 146.76Q81.69 145.42 81.69 137.41L81.69 134.22Q81.69 124.36 91.54 124.36L103.98 124.36L108.34 127.72L108.34 133.15L92.05 133.15Q91.43 133.15 91.43 133.77L91.43 137.35Q91.43 138.08 92.10 138.25L102.46 140.26Q109.46 141.72 109.46 149.67L109.46 153.14Q109.46 163 99.61 163M174.08 163L164.34 163L164.34 124.36L174.08 124.36M238.81 133.15L227.61 133.15L227.61 124.36L259.75 124.36L259.75 133.15L248.55 133.15L248.55 163L238.81 163M340.33 163L313.28 163L313.28 124.36L340.33 124.36L340.33 133.15L323.03 133.15L323.03 138.92L338.65 138.92L338.65 147.71L323.03 147.71L323.03 154.21L340.33 154.21M398 163L393.64 159.64L393.64 154.21L411.05 154.21Q411.67 154.21 411.67 153.59L411.67 149.78Q411.67 149 411 148.89L400.64 146.76Q393.64 145.42 393.64 137.41L393.64 134.22Q393.64 124.36 403.49 124.36L415.92 124.36L420.29 127.72L420.29 133.15L404 133.15Q403.38 133.15 403.38 133.77L403.38 137.35Q403.38 138.08 404.05 138.25L414.41 140.26Q421.41 141.72 421.41 149.67L421.41 153.14Q421.41 163 411.56 163" transform="translate(3,3)" fill="#1c1301"/><path d="M33.20 100L15.80 100L15.80 31L33.20 31L33.20 57L54 57L54 31L71.40 31L71.40 100L54 100L54 72.70L33.20 72.70M83 100L80.90 96.80L100.40 31L126.40 31L145.90 96.80L143.80 100L129.20 100L125.80 87.70L101 87.70L97.60 100L83 100M112.80 46.70L105.60 72L121.20 72L114 46.70M172.80 100L155.40 100L155.40 31L174.20 31L197.10 71L197.10 31L214.50 31L214.50 100L195.80 100L172.80 60M229.10 82.40L229.10 48.60Q229.10 31 246.70 31L274.90 31L282.70 37L282.70 46.70L247.60 46.70Q246.50 46.70 246.50 47.80L246.50 83.20Q246.50 84.30 247.60 84.30L267.30 84.30L267.30 72.70L256 72.70L256 57L284.70 57L284.70 100L246.70 100Q229.10 100 229.10 82.40M294.30 100L292.20 96.80L311.70 31L337.70 31L357.20 96.80L355.10 100L340.50 100L337.10 87.70L312.30 87.70L308.90 100L294.30 100M324.10 46.70L316.90 72L332.50 72L325.30 46.70M384.10 100L366.70 100L366.70 31L400.70 31Q418.30 31 418.30 48.60L418.30 60.20Q418.30 72.40 409.90 76.20L420.30 96.50L418.30 100L403.30 100L391.90 77.70L384.10 77.70L384.10 100M384.10 46.70L384.10 62L399.80 62Q400.90 62 400.90 60.90L400.90 47.80Q400.90 46.70 399.80 46.70" fill="url(#g1)" stroke="#1d262e" stroke-width="1.6"/><path d="M86.06 163L81.69 159.64L81.69 154.21L99.10 154.21Q99.72 154.21 99.72 153.59L99.72 149.78Q99.72 149 99.05 148.89L88.69 146.76Q81.69 145.42 81.69 137.41L81.69 134.22Q81.69 124.36 91.54 124.36L103.98 124.36L108.34 127.72L108.34 133.15L92.05 133.15Q91.43 133.15 91.43 133.77L91.43 137.35Q91.43 138.08 92.10 138.25L102.46 140.26Q109.46 141.72 109.46 149.67L109.46 153.14Q109.46 163 99.61 163M174.08 163L164.34 163L164.34 124.36L174.08 124.36M238.81 133.15L227.61 133.15L227.61 124.36L259.75 124.36L259.75 133.15L248.55 133.15L248.55 163L238.81 163M340.33 163L313.28 163L313.28 124.36L340.33 124.36L340.33 133.15L323.03 133.15L323.03 138.92L338.65 138.92L338.65 147.71L323.03 147.71L323.03 154.21L340.33 154.21M398 163L393.64 159.64L393.64 154.21L411.05 154.21Q411.67 154.21 411.67 153.59L411.67 149.78Q411.67 149 411 148.89L400.64 146.76Q393.64 145.42 393.64 137.41L393.64 134.22Q393.64 124.36 403.49 124.36L415.92 124.36L420.29 127.72L420.29 133.15L404 133.15Q403.38 133.15 403.38 133.77L403.38 137.35Q403.38 138.08 404.05 138.25L414.41 140.26Q421.41 141.72 421.41 149.67L421.41 153.14Q421.41 163 411.56 163" fill="url(#g2)" stroke="#332302" stroke-width="1.3"/></g><rect width="435" height="177" fill="url(#spec)" clip-path="url(#letters)"/></svg>
