<svg xmlns="http://www.w3.org/2000/svg" viewBox="0 0 435 173" role="img" aria-label="HANGAR NETWORK"><defs><linearGradient id="g1" gradientUnits="userSpaceOnUse" x1="0" y1="26" x2="0" y2="102"><stop offset="0" stop-color="#ffffff"/><stop offset=".24" stop-color="#e9eff5"/><stop offset=".50" stop-color="#c3d0dc"/><stop offset=".52" stop-color="#7f97a9"/><stop offset=".62" stop-color="#a9bac7"/><stop offset=".84" stop-color="#e6edf3"/><stop offset="1" stop-color="#f9fbfd"/></linearGradient><linearGradient id="g2" gradientUnits="userSpaceOnUse" x1="0" y1="121" x2="0" y2="161"><stop offset="0" stop-color="#ffffff"/><stop offset=".24" stop-color="#e9eff5"/><stop offset=".50" stop-color="#c3d0dc"/><stop offset=".52" stop-color="#7f97a9"/><stop offset=".62" stop-color="#a9bac7"/><stop offset=".84" stop-color="#e6edf3"/><stop offset="1" stop-color="#f9fbfd"/></linearGradient><linearGradient id="spec" gradientUnits="userSpaceOnUse" x1="0" y1="0" x2="435" y2="173"><stop offset=".30" stop-color="#fff" stop-opacity="0"/><stop offset=".46" stop-color="#fff" stop-opacity=".32"/><stop offset=".52" stop-color="#fff" stop-opacity=".08"/><stop offset=".62" stop-color="#fff" stop-opacity="0"/></linearGradient><clipPath id="letters"><path d="M33.20 100L15.80 100L15.80 31L33.20 31L33.20 57L54 57L54 31L71.40 31L71.40 100L54 100L54 72.70L33.20 72.70M83 100L80.90 96.80L100.40 31L126.40 31L145.90 96.80L143.80 100L129.20 100L125.80 87.70L101 87.70L97.60 100L83 100M112.80 46.70L105.60 72L121.20 72L114 46.70M172.80 100L155.40 100L155.40 31L174.20 31L197.10 71L197.10 31L214.50 31L214.50 100L195.80 100L172.80 60M229.10 82.40L229.10 48.60Q229.10 31 246.70 31L274.90 31L282.70 37L282.70 46.70L247.60 46.70Q246.50 46.70 246.50 47.80L246.50 83.20Q246.50 84.30 247.60 84.30L267.30 84.30L267.30 72.70L256 72.70L256 57L284.70 57L284.70 100L246.70 100Q229.10 100 229.10 82.40M294.30 100L292.20 96.80L311.70 31L337.70 31L357.20 96.80L355.10 100L340.50 100L337.10 87.70L312.30 87.70L308.90 100L294.30 100M324.10 46.70L316.90 72L332.50 72L325.30 46.70M384.10 100L366.70 100L366.70 31L400.70 31Q418.30 31 418.30 48.60L418.30 60.20Q418.30 72.40 409.90 76.20L420.30 96.50L418.30 100L403.30 100L391.90 77.70L384.10 77.70L384.10 100M384.10 46.70L384.10 62L399.80 62Q400.90 62 400.90 60.90L400.90 47.80Q400.90 46.70 399.80 46.70"/><path d="M91.83 159L82.97 159L82.97 123.87L92.54 123.87L104.20 144.24L104.20 123.87L113.06 123.87L113.06 159L103.54 159L91.83 138.64M160.59 159L136 159L136 123.87L160.59 123.87L160.59 131.87L144.86 131.87L144.86 137.11L159.06 137.11L159.06 145.10L144.86 145.10L144.86 151.01L160.59 151.01M189.54 131.87L179.35 131.87L179.35 123.87L208.58 123.87L208.58 131.87L198.39 131.87L198.39 159L189.54 159M232.43 159L226.17 125.50L227.34 123.87L234.67 123.87L239.51 151.01L239.97 151.01L245.26 126.98L253.92 126.98L259.21 151.01L259.67 151.01L264.51 123.87L271.84 123.87L273.01 125.50L266.75 159L252.80 159L249.59 143.32L246.38 159M292.84 150.04L292.84 132.83Q292.84 123.87 301.80 123.87L313.21 123.87Q322.17 123.87 322.17 132.83L322.17 150.04Q322.17 159 313.21 159L301.80 159Q292.84 159 292.84 150.04M301.70 132.43L301.70 150.45Q301.70 151.01 302.26 151.01L312.75 151.01Q313.31 151.01 313.31 150.45L313.31 132.43Q313.31 131.87 312.75 131.87L302.26 131.87Q301.70 131.87 301.70 132.43M353.46 159L344.60 159L344.60 123.87L361.91 123.87Q370.87 123.87 370.87 132.83L370.87 138.74Q370.87 144.95 366.59 146.88L371.89 157.22L370.87 159L363.23 159L357.43 147.65L353.46 147.65L353.46 159M353.46 131.87L353.46 139.65L361.45 139.65Q362.01 139.65 362.01 139.09L362.01 132.43Q362.01 131.87 361.45 131.87M401.65 159L392.79 159L392.79 123.87L401.65 123.87L401.65 135.68L412.24 123.87L420.59 123.87L421.40 125.60L410 138.33L422.73 157.27L421.91 159L413.77 159L404.30 144.75L401.65 147.49"/></clipPath><clipPath id="word2"><path d="M91.83 159L82.97 159L82.97 123.87L92.54 123.87L104.20 144.24L104.20 123.87L113.06 123.87L113.06 159L103.54 159L91.83 138.64M160.59 159L136 159L136 123.87L160.59 123.87L160.59 131.87L144.86 131.87L144.86 137.11L159.06 137.11L159.06 145.10L144.86 145.10L144.86 151.01L160.59 151.01M189.54 131.87L179.35 131.87L179.35 123.87L208.58 123.87L208.58 131.87L198.39 131.87L198.39 159L189.54 159M232.43 159L226.17 125.50L227.34 123.87L234.67 123.87L239.51 151.01L239.97 151.01L245.26 126.98L253.92 126.98L259.21 151.01L259.67 151.01L264.51 123.87L271.84 123.87L273.01 125.50L266.75 159L252.80 159L249.59 143.32L246.38 159M292.84 150.04L292.84 132.83Q292.84 123.87 301.80 123.87L313.21 123.87Q322.17 123.87 322.17 132.83L322.17 150.04Q322.17 159 313.21 159L301.80 159Q292.84 159 292.84 150.04M301.70 132.43L301.70 150.45Q301.70 151.01 302.26 151.01L312.75 151.01Q313.31 151.01 313.31 150.45L313.31 132.43Q313.31 131.87 312.75 131.87L302.26 131.87Q301.70 131.87 301.70 132.43M353.46 159L344.60 159L344.60 123.87L361.91 123.87Q370.87 123.87 370.87 132.83L370.87 138.74Q370.87 144.95 366.59 146.88L371.89 157.22L370.87 159L363.23 159L357.43 147.65L353.46 147.65L353.46 159M353.46 131.87L353.46 139.65L361.45 139.65Q362.01 139.65 362.01 139.09L362.01 132.43Q362.01 131.87 361.45 131.87M401.65 159L392.79 159L392.79 123.87L401.65 123.87L401.65 135.68L412.24 123.87L420.59 123.87L421.40 125.60L410 138.33L422.73 157.27L421.91 159L413.77 159L404.30 144.75L401.65 147.49"/></clipPath><radialGradient id="hole"><stop offset="0" stop-color="#050101"/><stop offset=".62" stop-color="#1a0404"/><stop offset=".88" stop-color="#3d0f0c"/><stop offset="1" stop-color="#54140f"/></radialGradient><filter id="ds" x="-8%" y="-12%" width="116%" height="130%"><feDropShadow dx="0" dy="3" stdDeviation="3" flood-color="#000" flood-opacity=".55"/></filter><filter id="eglow" x="-30%" y="-30%" width="160%" height="160%"><feGaussianBlur stdDeviation="2.2"/></filter><filter id="ehalo" x="-60%" y="-60%" width="220%" height="220%"><feGaussianBlur stdDeviation="6"/></filter><linearGradient id="charge" gradientUnits="userSpaceOnUse" x1="79" y1="0" x2="424.09999999999997" y2="0"><stop offset="0" stop-color="#bfe6ff" stop-opacity="0"/><stop offset=".60" stop-color="#bfe6ff" stop-opacity=".06"/><stop offset=".88" stop-color="#dff2ff" stop-opacity=".16"/><stop offset="1" stop-color="#ffffff" stop-opacity=".28"/></linearGradient></defs><g filter="url(#ds)"><path d="M33.20 100L15.80 100L15.80 31L33.20 31L33.20 57L54 57L54 31L71.40 31L71.40 100L54 100L54 72.70L33.20 72.70M83 100L80.90 96.80L100.40 31L126.40 31L145.90 96.80L143.80 100L129.20 100L125.80 87.70L101 87.70L97.60 100L83 100M112.80 46.70L105.60 72L121.20 72L114 46.70M172.80 100L155.40 100L155.40 31L174.20 31L197.10 71L197.10 31L214.50 31L214.50 100L195.80 100L172.80 60M229.10 82.40L229.10 48.60Q229.10 31 246.70 31L274.90 31L282.70 37L282.70 46.70L247.60 46.70Q246.50 46.70 246.50 47.80L246.50 83.20Q246.50 84.30 247.60 84.30L267.30 84.30L267.30 72.70L256 72.70L256 57L284.70 57L284.70 100L246.70 100Q229.10 100 229.10 82.40M294.30 100L292.20 96.80L311.70 31L337.70 31L357.20 96.80L355.10 100L340.50 100L337.10 87.70L312.30 87.70L308.90 100L294.30 100M324.10 46.70L316.90 72L332.50 72L325.30 46.70M384.10 100L366.70 100L366.70 31L400.70 31Q418.30 31 418.30 48.60L418.30 60.20Q418.30 72.40 409.90 76.20L420.30 96.50L418.30 100L403.30 100L391.90 77.70L384.10 77.70L384.10 100M384.10 46.70L384.10 62L399.80 62Q400.90 62 400.90 60.90L400.90 47.80Q400.90 46.70 399.80 46.70" transform="translate(3,3)" fill="#0d1216"/><path d="M91.83 159L82.97 159L82.97 123.87L92.54 123.87L104.20 144.24L104.20 123.87L113.06 123.87L113.06 159L103.54 159L91.83 138.64M160.59 159L136 159L136 123.87L160.59 123.87L160.59 131.87L144.86 131.87L144.86 137.11L159.06 137.11L159.06 145.10L144.86 145.10L144.86 151.01L160.59 151.01M189.54 131.87L179.35 131.87L179.35 123.87L208.58 123.87L208.58 131.87L198.39 131.87L198.39 159L189.54 159M232.43 159L226.17 125.50L227.34 123.87L234.67 123.87L239.51 151.01L239.97 151.01L245.26 126.98L253.92 126.98L259.21 151.01L259.67 151.01L264.51 123.87L271.84 123.87L273.01 125.50L266.75 159L252.80 159L249.59 143.32L246.38 159M292.84 150.04L292.84 132.83Q292.84 123.87 301.80 123.87L313.21 123.87Q322.17 123.87 322.17 132.83L322.17 150.04Q322.17 159 313.21 159L301.80 159Q292.84 159 292.84 150.04M301.70 132.43L301.70 150.45Q301.70 151.01 302.26 151.01L312.75 151.01Q313.31 151.01 313.31 150.45L313.31 132.43Q313.31 131.87 312.75 131.87L302.26 131.87Q301.70 131.87 301.70 132.43M353.46 159L344.60 159L344.60 123.87L361.91 123.87Q370.87 123.87 370.87 132.83L370.87 138.74Q370.87 144.95 366.59 146.88L371.89 157.22L370.87 159L363.23 159L357.43 147.65L353.46 147.65L353.46 159M353.46 131.87L353.46 139.65L361.45 139.65Q362.01 139.65 362.01 139.09L362.01 132.43Q362.01 131.87 361.45 131.87M401.65 159L392.79 159L392.79 123.87L401.65 123.87L401.65 135.68L412.24 123.87L420.59 123.87L421.40 125.60L410 138.33L422.73 157.27L421.91 159L413.77 159L404.30 144.75L401.65 147.49" transform="translate(3,3)" fill="#0d1216"/><path d="M33.20 100L15.80 100L15.80 31L33.20 31L33.20 57L54 57L54 31L71.40 31L71.40 100L54 100L54 72.70L33.20 72.70M83 100L80.90 96.80L100.40 31L126.40 31L145.90 96.80L143.80 100L129.20 100L125.80 87.70L101 87.70L97.60 100L83 100M112.80 46.70L105.60 72L121.20 72L114 46.70M172.80 100L155.40 100L155.40 31L174.20 31L197.10 71L197.10 31L214.50 31L214.50 100L195.80 100L172.80 60M229.10 82.40L229.10 48.60Q229.10 31 246.70 31L274.90 31L282.70 37L282.70 46.70L247.60 46.70Q246.50 46.70 246.50 47.80L246.50 83.20Q246.50 84.30 247.60 84.30L267.30 84.30L267.30 72.70L256 72.70L256 57L284.70 57L284.70 100L246.70 100Q229.10 100 229.10 82.40M294.30 100L292.20 96.80L311.70 31L337.70 31L357.20 96.80L355.10 100L340.50 100L337.10 87.70L312.30 87.70L308.90 100L294.30 100M324.10 46.70L316.90 72L332.50 72L325.30 46.70M384.10 100L366.70 100L366.70 31L400.70 31Q418.30 31 418.30 48.60L418.30 60.20Q418.30 72.40 409.90 76.20L420.30 96.50L418.30 100L403.30 100L391.90 77.70L384.10 77.70L384.10 100M384.10 46.70L384.10 62L399.80 62Q400.90 62 400.90 60.90L400.90 47.80Q400.90 46.70 399.80 46.70" fill="url(#g1)" stroke="#1d262e" stroke-width="1.6"/><path d="M91.83 159L82.97 159L82.97 123.87L92.54 123.87L104.20 144.24L104.20 123.87L113.06 123.87L113.06 159L103.54 159L91.83 138.64M160.59 159L136 159L136 123.87L160.59 123.87L160.59 131.87L144.86 131.87L144.86 137.11L159.06 137.11L159.06 145.10L144.86 145.10L144.86 151.01L160.59 151.01M189.54 131.87L179.35 131.87L179.35 123.87L208.58 123.87L208.58 131.87L198.39 131.87L198.39 159L189.54 159M232.43 159L226.17 125.50L227.34 123.87L234.67 123.87L239.51 151.01L239.97 151.01L245.26 126.98L253.92 126.98L259.21 151.01L259.67 151.01L264.51 123.87L271.84 123.87L273.01 125.50L266.75 159L252.80 159L249.59 143.32L246.38 159M292.84 150.04L292.84 132.83Q292.84 123.87 301.80 123.87L313.21 123.87Q322.17 123.87 322.17 132.83L322.17 150.04Q322.17 159 313.21 159L301.80 159Q292.84 159 292.84 150.04M301.70 132.43L301.70 150.45Q301.70 151.01 302.26 151.01L312.75 151.01Q313.31 151.01 313.31 150.45L313.31 132.43Q313.31 131.87 312.75 131.87L302.26 131.87Q301.70 131.87 301.70 132.43M353.46 159L344.60 159L344.60 123.87L361.91 123.87Q370.87 123.87 370.87 132.83L370.87 138.74Q370.87 144.95 366.59 146.88L371.89 157.22L370.87 159L363.23 159L357.43 147.65L353.46 147.65L353.46 159M353.46 131.87L353.46 139.65L361.45 139.65Q362.01 139.65 362.01 139.09L362.01 132.43Q362.01 131.87 361.45 131.87M401.65 159L392.79 159L392.79 123.87L401.65 123.87L401.65 135.68L412.24 123.87L420.59 123.87L421.40 125.60L410 138.33L422.73 157.27L421.91 159L413.77 159L404.30 144.75L401.65 147.49" fill="url(#g2)" stroke="#1d262e" stroke-width="1.3"/></g><rect width="435" height="173" fill="url(#spec)" clip-path="url(#letters)"/></svg>
