<svg xmlns="http://www.w3.org/2000/svg" viewBox="0 0 435 165" role="img" aria-label="HANGAR COMBAT ARENA"><defs><linearGradient id="g1" gradientUnits="userSpaceOnUse" x1="0" y1="26" x2="0" y2="102"><stop offset="0" stop-color="#ffffff"/><stop offset=".24" stop-color="#e9eff5"/><stop offset=".50" stop-color="#c3d0dc"/><stop offset=".52" stop-color="#7f97a9"/><stop offset=".62" stop-color="#a9bac7"/><stop offset=".84" stop-color="#e6edf3"/><stop offset="1" stop-color="#f9fbfd"/></linearGradient><linearGradient id="g2" gradientUnits="userSpaceOnUse" x1="0" y1="121" x2="0" y2="153"><stop offset="0" stop-color="#e8524a"/><stop offset=".45" stop-color="#d5352e"/><stop offset=".80" stop-color="#a81f1a"/><stop offset="1" stop-color="#7e120e"/></linearGradient><linearGradient id="spec" gradientUnits="userSpaceOnUse" x1="0" y1="0" x2="435" y2="165"><stop offset=".30" stop-color="#fff" stop-opacity="0"/><stop offset=".46" stop-color="#fff" stop-opacity=".32"/><stop offset=".52" stop-color="#fff" stop-opacity=".08"/><stop offset=".62" stop-color="#fff" stop-opacity="0"/></linearGradient><clipPath id="letters"><path d="M33.20 100L15.80 100L15.80 31L33.20 31L33.20 57L54 57L54 31L71.40 31L71.40 100L54 100L54 72.70L33.20 72.70M83 100L80.90 96.80L100.40 31L126.40 31L145.90 96.80L143.80 100L129.20 100L125.80 87.70L101 87.70L97.60 100L83 100M112.80 46.70L105.60 72L121.20 72L114 46.70M172.80 100L155.40 100L155.40 31L174.20 31L197.10 71L197.10 31L214.50 31L214.50 100L195.80 100L172.80 60M229.10 82.40L229.10 48.60Q229.10 31 246.70 31L274.90 31L282.70 37L282.70 46.70L247.60 46.70Q246.50 46.70 246.50 47.80L246.50 83.20Q246.50 84.30 247.60 84.30L267.30 84.30L267.30 72.70L256 72.70L256 57L284.70 57L284.70 100L246.70 100Q229.10 100 229.10 82.40M294.30 100L292.20 96.80L311.70 31L337.70 31L357.20 96.80L355.10 100L340.50 100L337.10 87.70L312.30 87.70L308.90 100L294.30 100M324.10 46.70L316.90 72L332.50 72L325.30 46.70M384.10 100L366.70 100L366.70 31L400.70 31Q418.30 31 418.30 48.60L418.30 60.20Q418.30 72.40 409.90 76.20L420.30 96.50L418.30 100L403.30 100L391.90 77.70L384.10 77.70L384.10 100M384.10 46.70L384.10 62L399.80 62Q400.90 62 400.90 60.90L400.90 47.80Q400.90 46.70 399.80 46.70"/><path d="M81.72 143.96L81.72 130.44Q81.72 123.40 88.76 123.40L99.12 123.40L102.24 125.80L102.24 129.68L89.12 129.68Q88.68 129.68 88.68 130.12L88.68 144.28Q88.68 144.72 89.12 144.72L102.24 144.72L102.24 148.60L99.12 151L88.76 151Q81.72 151 81.72 143.96M109.84 143.96L109.84 130.44Q109.84 123.40 116.88 123.40L125.84 123.40Q132.88 123.40 132.88 130.44L132.88 143.96Q132.88 151 125.84 151L116.88 151Q109.84 151 109.84 143.96M116.80 130.12L116.80 144.28Q116.80 144.72 117.24 144.72L125.48 144.72Q125.92 144.72 125.92 144.28L125.92 130.12Q125.92 129.68 125.48 129.68L117.24 129.68Q116.80 129.68 116.80 130.12M148.56 151L141.60 151L141.60 123.40L149.68 123.40L156.72 138.44L163.76 123.40L171.84 123.40L171.84 151L164.88 151L164.88 136.12L159.52 147.60L153.92 147.60L148.56 136.12M194.97 151L180.97 151L180.97 123.40L194.17 123.40Q201.21 123.40 201.21 130.44L201.21 132.64Q201.21 134 200.41 134.96L199.01 136.64L200.69 138.04Q202.01 139.12 202.01 141.24L202.01 143.96Q202.01 151 194.97 151M187.93 140.08L187.93 144.72L194.61 144.72Q195.05 144.72 195.05 144.28L195.05 140.52Q195.05 140.08 194.61 140.08L187.93 140.08M187.93 129.68L187.93 133.80L193.81 133.80Q194.25 133.80 194.25 133.36L194.25 130.12Q194.25 129.68 193.81 129.68M208.49 151L207.65 149.72L215.45 123.40L225.85 123.40L233.65 149.72L232.81 151L226.97 151L225.61 146.08L215.69 146.08L214.33 151L208.49 151M220.41 129.68L217.53 139.80L223.77 139.80L220.89 129.68M246.17 129.68L238.17 129.68L238.17 123.40L261.13 123.40L261.13 129.68L253.13 129.68L253.13 151L246.17 151M278.97 151L278.13 149.72L285.93 123.40L296.33 123.40L304.13 149.72L303.29 151L297.45 151L296.09 146.08L286.17 146.08L284.81 151L278.97 151M290.89 129.68L288.01 139.80L294.25 139.80L291.37 129.68M317.77 151L310.81 151L310.81 123.40L324.41 123.40Q331.45 123.40 331.45 130.44L331.45 135.08Q331.45 139.96 328.09 141.48L332.25 149.60L331.45 151L325.45 151L320.89 142.08L317.77 142.08L317.77 151M317.77 129.68L317.77 135.80L324.05 135.80Q324.49 135.80 324.49 135.36L324.49 130.12Q324.49 129.68 324.05 129.68M359.10 151L339.78 151L339.78 123.40L359.10 123.40L359.10 129.68L346.74 129.68L346.74 133.80L357.90 133.80L357.90 140.08L346.74 140.08L346.74 144.72L359.10 144.72M374.06 151L367.10 151L367.10 123.40L374.62 123.40L383.78 139.40L383.78 123.40L390.74 123.40L390.74 151L383.26 151L374.06 135M398.26 151L397.42 149.72L405.22 123.40L415.62 123.40L423.42 149.72L422.58 151L416.74 151L415.38 146.08L405.46 146.08L404.10 151L398.26 151M410.18 129.68L407.30 139.80L413.54 139.80L410.66 129.68"/></clipPath><clipPath id="word2"><path d="M81.72 143.96L81.72 130.44Q81.72 123.40 88.76 123.40L99.12 123.40L102.24 125.80L102.24 129.68L89.12 129.68Q88.68 129.68 88.68 130.12L88.68 144.28Q88.68 144.72 89.12 144.72L102.24 144.72L102.24 148.60L99.12 151L88.76 151Q81.72 151 81.72 143.96M109.84 143.96L109.84 130.44Q109.84 123.40 116.88 123.40L125.84 123.40Q132.88 123.40 132.88 130.44L132.88 143.96Q132.88 151 125.84 151L116.88 151Q109.84 151 109.84 143.96M116.80 130.12L116.80 144.28Q116.80 144.72 117.24 144.72L125.48 144.72Q125.92 144.72 125.92 144.28L125.92 130.12Q125.92 129.68 125.48 129.68L117.24 129.68Q116.80 129.68 116.80 130.12M148.56 151L141.60 151L141.60 123.40L149.68 123.40L156.72 138.44L163.76 123.40L171.84 123.40L171.84 151L164.88 151L164.88 136.12L159.52 147.60L153.92 147.60L148.56 136.12M194.97 151L180.97 151L180.97 123.40L194.17 123.40Q201.21 123.40 201.21 130.44L201.21 132.64Q201.21 134 200.41 134.96L199.01 136.64L200.69 138.04Q202.01 139.12 202.01 141.24L202.01 143.96Q202.01 151 194.97 151M187.93 140.08L187.93 144.72L194.61 144.72Q195.05 144.72 195.05 144.28L195.05 140.52Q195.05 140.08 194.61 140.08L187.93 140.08M187.93 129.68L187.93 133.80L193.81 133.80Q194.25 133.80 194.25 133.36L194.25 130.12Q194.25 129.68 193.81 129.68M208.49 151L207.65 149.72L215.45 123.40L225.85 123.40L233.65 149.72L232.81 151L226.97 151L225.61 146.08L215.69 146.08L214.33 151L208.49 151M220.41 129.68L217.53 139.80L223.77 139.80L220.89 129.68M246.17 129.68L238.17 129.68L238.17 123.40L261.13 123.40L261.13 129.68L253.13 129.68L253.13 151L246.17 151M278.97 151L278.13 149.72L285.93 123.40L296.33 123.40L304.13 149.72L303.29 151L297.45 151L296.09 146.08L286.17 146.08L284.81 151L278.97 151M290.89 129.68L288.01 139.80L294.25 139.80L291.37 129.68M317.77 151L310.81 151L310.81 123.40L324.41 123.40Q331.45 123.40 331.45 130.44L331.45 135.08Q331.45 139.96 328.09 141.48L332.25 149.60L331.45 151L325.45 151L320.89 142.08L317.77 142.08L317.77 151M317.77 129.68L317.77 135.80L324.05 135.80Q324.49 135.80 324.49 135.36L324.49 130.12Q324.49 129.68 324.05 129.68M359.10 151L339.78 151L339.78 123.40L359.10 123.40L359.10 129.68L346.74 129.68L346.74 133.80L357.90 133.80L357.90 140.08L346.74 140.08L346.74 144.72L359.10 144.72M374.06 151L367.10 151L367.10 123.40L374.62 123.40L383.78 139.40L383.78 123.40L390.74 123.40L390.74 151L383.26 151L374.06 135M398.26 151L397.42 149.72L405.22 123.40L415.62 123.40L423.42 149.72L422.58 151L416.74 151L415.38 146.08L405.46 146.08L404.10 151L398.26 151M410.18 129.68L407.30 139.80L413.54 139.80L410.66 129.68"/></clipPath><radialGradient id="hole"><stop offset="0" stop-color="#050101"/><stop offset=".62" stop-color="#1a0404"/><stop offset=".88" stop-color="#3d0f0c"/><stop offset="1" stop-color="#54140f"/></radialGradient><filter id="ds" x="-8%" y="-12%" width="116%" height="130%"><feDropShadow dx="0" dy="3" stdDeviation="3" flood-color="#000" flood-opacity=".55"/></filter><filter id="eglow" x="-30%" y="-30%" width="160%" height="160%"><feGaussianBlur stdDeviation="2.2"/></filter><filter id="ehalo" x="-60%" y="-60%" width="220%" height="220%"><feGaussianBlur stdDeviation="6"/></filter><linearGradient id="charge" gradientUnits="userSpaceOnUse" x1="79" y1="0" x2="424.09999999999997" y2="0"><stop offset="0" stop-color="#bfe6ff" stop-opacity="0"/><stop offset=".60" stop-color="#bfe6ff" stop-opacity=".06"/><stop offset=".88" stop-color="#dff2ff" stop-opacity=".16"/><stop offset="1" stop-color="#ffffff" stop-opacity=".28"/></linearGradient></defs><g filter="url(#ds)"><path d="M33.20 100L15.80 100L15.80 31L33.20 31L33.20 57L54 57L54 31L71.40 31L71.40 100L54 100L54 72.70L33.20 72.70M83 100L80.90 96.80L100.40 31L126.40 31L145.90 96.80L143.80 100L129.20 100L125.80 87.70L101 87.70L97.60 100L83 100M112.80 46.70L105.60 72L121.20 72L114 46.70M172.80 100L155.40 100L155.40 31L174.20 31L197.10 71L197.10 31L214.50 31L214.50 100L195.80 100L172.80 60M229.10 82.40L229.10 48.60Q229.10 31 246.70 31L274.90 31L282.70 37L282.70 46.70L247.60 46.70Q246.50 46.70 246.50 47.80L246.50 83.20Q246.50 84.30 247.60 84.30L267.30 84.30L267.30 72.70L256 72.70L256 57L284.70 57L284.70 100L246.70 100Q229.10 100 229.10 82.40M294.30 100L292.20 96.80L311.70 31L337.70 31L357.20 96.80L355.10 100L340.50 100L337.10 87.70L312.30 87.70L308.90 100L294.30 100M324.10 46.70L316.90 72L332.50 72L325.30 46.70M384.10 100L366.70 100L366.70 31L400.70 31Q418.30 31 418.30 48.60L418.30 60.20Q418.30 72.40 409.90 76.20L420.30 96.50L418.30 100L403.30 100L391.90 77.70L384.10 77.70L384.10 100M384.10 46.70L384.10 62L399.80 62Q400.90 62 400.90 60.90L400.90 47.80Q400.90 46.70 399.80 46.70" transform="translate(3,3)" fill="#0d1216"/><path d="M81.72 143.96L81.72 130.44Q81.72 123.40 88.76 123.40L99.12 123.40L102.24 125.80L102.24 129.68L89.12 129.68Q88.68 129.68 88.68 130.12L88.68 144.28Q88.68 144.72 89.12 144.72L102.24 144.72L102.24 148.60L99.12 151L88.76 151Q81.72 151 81.72 143.96M109.84 143.96L109.84 130.44Q109.84 123.40 116.88 123.40L125.84 123.40Q132.88 123.40 132.88 130.44L132.88 143.96Q132.88 151 125.84 151L116.88 151Q109.84 151 109.84 143.96M116.80 130.12L116.80 144.28Q116.80 144.72 117.24 144.72L125.48 144.72Q125.92 144.72 125.92 144.28L125.92 130.12Q125.92 129.68 125.48 129.68L117.24 129.68Q116.80 129.68 116.80 130.12M148.56 151L141.60 151L141.60 123.40L149.68 123.40L156.72 138.44L163.76 123.40L171.84 123.40L171.84 151L164.88 151L164.88 136.12L159.52 147.60L153.92 147.60L148.56 136.12M194.97 151L180.97 151L180.97 123.40L194.17 123.40Q201.21 123.40 201.21 130.44L201.21 132.64Q201.21 134 200.41 134.96L199.01 136.64L200.69 138.04Q202.01 139.12 202.01 141.24L202.01 143.96Q202.01 151 194.97 151M187.93 140.08L187.93 144.72L194.61 144.72Q195.05 144.72 195.05 144.28L195.05 140.52Q195.05 140.08 194.61 140.08L187.93 140.08M187.93 129.68L187.93 133.80L193.81 133.80Q194.25 133.80 194.25 133.36L194.25 130.12Q194.25 129.68 193.81 129.68M208.49 151L207.65 149.72L215.45 123.40L225.85 123.40L233.65 149.72L232.81 151L226.97 151L225.61 146.08L215.69 146.08L214.33 151L208.49 151M220.41 129.68L217.53 139.80L223.77 139.80L220.89 129.68M246.17 129.68L238.17 129.68L238.17 123.40L261.13 123.40L261.13 129.68L253.13 129.68L253.13 151L246.17 151M278.97 151L278.13 149.72L285.93 123.40L296.33 123.40L304.13 149.72L303.29 151L297.45 151L296.09 146.08L286.17 146.08L284.81 151L278.97 151M290.89 129.68L288.01 139.80L294.25 139.80L291.37 129.68M317.77 151L310.81 151L310.81 123.40L324.41 123.40Q331.45 123.40 331.45 130.44L331.45 135.08Q331.45 139.96 328.09 141.48L332.25 149.60L331.45 151L325.45 151L320.89 142.08L317.77 142.08L317.77 151M317.77 129.68L317.77 135.80L324.05 135.80Q324.49 135.80 324.49 135.36L324.49 130.12Q324.49 129.68 324.05 129.68M359.10 151L339.78 151L339.78 123.40L359.10 123.40L359.10 129.68L346.74 129.68L346.74 133.80L357.90 133.80L357.90 140.08L346.74 140.08L346.74 144.72L359.10 144.72M374.06 151L367.10 151L367.10 123.40L374.62 123.40L383.78 139.40L383.78 123.40L390.74 123.40L390.74 151L383.26 151L374.06 135M398.26 151L397.42 149.72L405.22 123.40L415.62 123.40L423.42 149.72L422.58 151L416.74 151L415.38 146.08L405.46 146.08L404.10 151L398.26 151M410.18 129.68L407.30 139.80L413.54 139.80L410.66 129.68" transform="translate(3,3)" fill="#140202"/><path d="M33.20 100L15.80 100L15.80 31L33.20 31L33.20 57L54 57L54 31L71.40 31L71.40 100L54 100L54 72.70L33.20 72.70M83 100L80.90 96.80L100.40 31L126.40 31L145.90 96.80L143.80 100L129.20 100L125.80 87.70L101 87.70L97.60 100L83 100M112.80 46.70L105.60 72L121.20 72L114 46.70M172.80 100L155.40 100L155.40 31L174.20 31L197.10 71L197.10 31L214.50 31L214.50 100L195.80 100L172.80 60M229.10 82.40L229.10 48.60Q229.10 31 246.70 31L274.90 31L282.70 37L282.70 46.70L247.60 46.70Q246.50 46.70 246.50 47.80L246.50 83.20Q246.50 84.30 247.60 84.30L267.30 84.30L267.30 72.70L256 72.70L256 57L284.70 57L284.70 100L246.70 100Q229.10 100 229.10 82.40M294.30 100L292.20 96.80L311.70 31L337.70 31L357.20 96.80L355.10 100L340.50 100L337.10 87.70L312.30 87.70L308.90 100L294.30 100M324.10 46.70L316.90 72L332.50 72L325.30 46.70M384.10 100L366.70 100L366.70 31L400.70 31Q418.30 31 418.30 48.60L418.30 60.20Q418.30 72.40 409.90 76.20L420.30 96.50L418.30 100L403.30 100L391.90 77.70L384.10 77.70L384.10 100M384.10 46.70L384.10 62L399.80 62Q400.90 62 400.90 60.90L400.90 47.80Q400.90 46.70 399.80 46.70" fill="url(#g1)" stroke="#1d262e" stroke-width="1.6"/><path d="M81.72 143.96L81.72 130.44Q81.72 123.40 88.76 123.40L99.12 123.40L102.24 125.80L102.24 129.68L89.12 129.68Q88.68 129.68 88.68 130.12L88.68 144.28Q88.68 144.72 89.12 144.72L102.24 144.72L102.24 148.60L99.12 151L88.76 151Q81.72 151 81.72 143.96M109.84 143.96L109.84 130.44Q109.84 123.40 116.88 123.40L125.84 123.40Q132.88 123.40 132.88 130.44L132.88 143.96Q132.88 151 125.84 151L116.88 151Q109.84 151 109.84 143.96M116.80 130.12L116.80 144.28Q116.80 144.72 117.24 144.72L125.48 144.72Q125.92 144.72 125.92 144.28L125.92 130.12Q125.92 129.68 125.48 129.68L117.24 129.68Q116.80 129.68 116.80 130.12M148.56 151L141.60 151L141.60 123.40L149.68 123.40L156.72 138.44L163.76 123.40L171.84 123.40L171.84 151L164.88 151L164.88 136.12L159.52 147.60L153.92 147.60L148.56 136.12M194.97 151L180.97 151L180.97 123.40L194.17 123.40Q201.21 123.40 201.21 130.44L201.21 132.64Q201.21 134 200.41 134.96L199.01 136.64L200.69 138.04Q202.01 139.12 202.01 141.24L202.01 143.96Q202.01 151 194.97 151M187.93 140.08L187.93 144.72L194.61 144.72Q195.05 144.72 195.05 144.28L195.05 140.52Q195.05 140.08 194.61 140.08L187.93 140.08M187.93 129.68L187.93 133.80L193.81 133.80Q194.25 133.80 194.25 133.36L194.25 130.12Q194.25 129.68 193.81 129.68M208.49 151L207.65 149.72L215.45 123.40L225.85 123.40L233.65 149.72L232.81 151L226.97 151L225.61 146.08L215.69 146.08L214.33 151L208.49 151M220.41 129.68L217.53 139.80L223.77 139.80L220.89 129.68M246.17 129.68L238.17 129.68L238.17 123.40L261.13 123.40L261.13 129.68L253.13 129.68L253.13 151L246.17 151M278.97 151L278.13 149.72L285.93 123.40L296.33 123.40L304.13 149.72L303.29 151L297.45 151L296.09 146.08L286.17 146.08L284.81 151L278.97 151M290.89 129.68L288.01 139.80L294.25 139.80L291.37 129.68M317.77 151L310.81 151L310.81 123.40L324.41 123.40Q331.45 123.40 331.45 130.44L331.45 135.08Q331.45 139.96 328.09 141.48L332.25 149.60L331.45 151L325.45 151L320.89 142.08L317.77 142.08L317.77 151M317.77 129.68L317.77 135.80L324.05 135.80Q324.49 135.80 324.49 135.36L324.49 130.12Q324.49 129.68 324.05 129.68M359.10 151L339.78 151L339.78 123.40L359.10 123.40L359.10 129.68L346.74 129.68L346.74 133.80L357.90 133.80L357.90 140.08L346.74 140.08L346.74 144.72L359.10 144.72M374.06 151L367.10 151L367.10 123.40L374.62 123.40L383.78 139.40L383.78 123.40L390.74 123.40L390.74 151L383.26 151L374.06 135M398.26 151L397.42 149.72L405.22 123.40L415.62 123.40L423.42 149.72L422.58 151L416.74 151L415.38 146.08L405.46 146.08L404.10 151L398.26 151M410.18 129.68L407.30 139.80L413.54 139.80L410.66 129.68" fill="url(#g2)" stroke="#260404" stroke-width="1.3"/></g><g clip-path="url(#word2)"><circle cx="99.7" cy="130.6" r="6.5" fill="#160303" opacity=".5"/><circle cx="99.7" cy="130.6" r="4.2" fill="url(#hole)"/><circle cx="130.8" cy="142.8" r="4.3" fill="#160303" opacity=".5"/><circle cx="130.8" cy="142.8" r="2.8" fill="url(#hole)"/><circle cx="161.8" cy="128.2" r="7.3" fill="#160303" opacity=".5"/><circle cx="161.8" cy="128.2" r="4.7" fill="url(#hole)"/><circle cx="192.9" cy="139.9" r="4.8" fill="#160303" opacity=".5"/><circle cx="192.9" cy="139.9" r="3.1" fill="url(#hole)"/><circle cx="223.9" cy="127.1" r="5.7" fill="#160303" opacity=".5"/><circle cx="223.9" cy="127.1" r="3.7" fill="url(#hole)"/><circle cx="251.5" cy="142.2" r="4.0" fill="#160303" opacity=".5"/><circle cx="251.5" cy="142.2" r="2.6" fill="url(#hole)"/><circle cx="279.2" cy="132.0" r="7.6" fill="#160303" opacity=".5"/><circle cx="279.2" cy="132.0" r="4.9" fill="url(#hole)"/><circle cx="310.2" cy="141.7" r="4.7" fill="#160303" opacity=".5"/><circle cx="310.2" cy="141.7" r="3.0" fill="url(#hole)"/><circle cx="341.3" cy="129.1" r="6.2" fill="#160303" opacity=".5"/><circle cx="341.3" cy="129.1" r="4.0" fill="url(#hole)"/><circle cx="372.3" cy="139.3" r="4.2" fill="#160303" opacity=".5"/><circle cx="372.3" cy="139.3" r="2.7" fill="url(#hole)"/><circle cx="399.9" cy="132.9" r="7.0" fill="#160303" opacity=".5"/><circle cx="399.9" cy="132.9" r="4.5" fill="url(#hole)"/></g><rect width="435" height="165" fill="url(#spec)" clip-path="url(#letters)"/></svg>
