<svg xmlns="http://www.w3.org/2000/svg" viewBox="0 0 444 118" role="img" aria-label="HNET TV"><defs><linearGradient id="ga" gradientUnits="userSpaceOnUse" x1="0" y1="26" x2="0" y2="102"><stop offset="0" stop-color="#ffffff"/><stop offset=".24" stop-color="#e9eff5"/><stop offset=".50" stop-color="#c3d0dc"/><stop offset=".52" stop-color="#7f97a9"/><stop offset=".62" stop-color="#a9bac7"/><stop offset=".84" stop-color="#e6edf3"/><stop offset="1" stop-color="#f9fbfd"/></linearGradient><linearGradient id="gb" gradientUnits="userSpaceOnUse" x1="0" y1="26" x2="0" y2="102"><stop offset="0" stop-color="#e9d8ff"/><stop offset=".16" stop-color="#c9a6ff"/><stop offset=".44" stop-color="#ae7ff0"/><stop offset=".60" stop-color="#a06be8"/><stop offset=".80" stop-color="#6d43ac"/><stop offset="1" stop-color="#3a2363"/></linearGradient><linearGradient id="spec" gradientUnits="userSpaceOnUse" x1="0" y1="0" x2="444" y2="118"><stop offset=".30" stop-color="#fff" stop-opacity="0"/><stop offset=".46" stop-color="#fff" stop-opacity=".32"/><stop offset=".52" stop-color="#fff" stop-opacity=".08"/><stop offset=".62" stop-color="#fff" stop-opacity="0"/></linearGradient><clipPath id="letters"><path d="M33.20 100L15.80 100L15.80 31L33.20 31L33.20 57L54 57L54 31L71.40 31L71.40 100L54 100L54 72.70L33.20 72.70M104.40 100L87 100L87 31L105.80 31L128.70 71L128.70 31L146.10 31L146.10 100L127.40 100L104.40 60M210 100L161.70 100L161.70 31L210 31L210 46.70L179.10 46.70L179.10 57L207 57L207 72.70L179.10 72.70L179.10 84.30L210 84.30M237.40 46.70L217.40 46.70L217.40 31L274.80 31L274.80 46.70L254.80 46.70L254.80 100L237.40 100"/><path d="M325.60 46.70L305.60 46.70L305.60 31L363 31L363 46.70L343 46.70L343 100L325.60 100M385.60 100L367.10 34.20L369.20 31L384.60 31L398.50 84.30L399.70 84.30L413.60 31L429 31L431.10 34.20L412.60 100"/></clipPath><filter id="ds" x="-8%" y="-14%" width="116%" height="134%"><feDropShadow dx="0" dy="3" stdDeviation="3" flood-color="#000" flood-opacity=".55"/></filter></defs><g filter="url(#ds)"><path d="M33.20 100L15.80 100L15.80 31L33.20 31L33.20 57L54 57L54 31L71.40 31L71.40 100L54 100L54 72.70L33.20 72.70M104.40 100L87 100L87 31L105.80 31L128.70 71L128.70 31L146.10 31L146.10 100L127.40 100L104.40 60M210 100L161.70 100L161.70 31L210 31L210 46.70L179.10 46.70L179.10 57L207 57L207 72.70L179.10 72.70L179.10 84.30L210 84.30M237.40 46.70L217.40 46.70L217.40 31L274.80 31L274.80 46.70L254.80 46.70L254.80 100L237.40 100" transform="translate(3,3)" fill="#0d1216"/><path d="M325.60 46.70L305.60 46.70L305.60 31L363 31L363 46.70L343 46.70L343 100L325.60 100M385.60 100L367.10 34.20L369.20 31L384.60 31L398.50 84.30L399.70 84.30L413.60 31L429 31L431.10 34.20L412.60 100" transform="translate(3,3)" fill="#120826"/><path d="M33.20 100L15.80 100L15.80 31L33.20 31L33.20 57L54 57L54 31L71.40 31L71.40 100L54 100L54 72.70L33.20 72.70M104.40 100L87 100L87 31L105.80 31L128.70 71L128.70 31L146.10 31L146.10 100L127.40 100L104.40 60M210 100L161.70 100L161.70 31L210 31L210 46.70L179.10 46.70L179.10 57L207 57L207 72.70L179.10 72.70L179.10 84.30L210 84.30M237.40 46.70L217.40 46.70L217.40 31L274.80 31L274.80 46.70L254.80 46.70L254.80 100L237.40 100" fill="url(#ga)" stroke="#1d262e" stroke-width="1.6"/><path d="M325.60 46.70L305.60 46.70L305.60 31L363 31L363 46.70L343 46.70L343 100L325.60 100M385.60 100L367.10 34.20L369.20 31L384.60 31L398.50 84.30L399.70 84.30L413.60 31L429 31L431.10 34.20L412.60 100" fill="url(#gb)" stroke="#241040" stroke-width="1.6"/></g><rect width="444" height="118" fill="url(#spec)" clip-path="url(#letters)"/></svg>
